<?xml version="1.0" standalone="no"?>
<!DOCTYPE svg PUBLIC "-//W3C//DTD SVG 20010904//EN"
 "http://www.w3.org/TR/2001/REC-SVG-20010904/DTD/svg10.dtd">
<svg version="1.0" xmlns="http://www.w3.org/2000/svg"
 width="600.000000pt" height="600.000000pt" viewBox="0 0 600.000000 600.000000"
 preserveAspectRatio="xMidYMid meet">
<metadata>
Created by potrace 1.11, written by Peter Selinger 2001-2013
</metadata>
<g transform="translate(0.000000,600.000000) scale(0.100000,-0.100000)"
fill="#000000" stroke="none">
<path d="M5160 4623 c-133 -54 -434 -211 -451 -236 -3 -5 -10 -9 -15 -9 -11 0
-170 -108 -199 -135 -11 -10 -32 -26 -47 -36 -45 -28 -226 -206 -288 -282
-124 -153 -240 -357 -315 -555 -16 -41 -31 -78 -35 -82 -3 -5 -30 -2 -60 6
-50 13 -56 13 -65 -2 -5 -9 -38 -69 -72 -133 l-62 -117 65 -21 c35 -11 71 -21
79 -21 25 0 25 -16 6 -112 -65 -313 -91 -558 -95 -882 l-1 -149 144 7 c79 3
147 8 149 11 3 3 7 67 8 143 2 75 6 172 9 216 5 70 4 77 -10 63 -8 -9 -24 -18
-35 -22 -13 -4 -21 -19 -26 -43 -10 -64 -15 -73 -42 -83 -34 -13 -88 -3 -96
17 -3 9 -6 52 -6 95 0 67 -4 88 -25 125 -34 60 -33 111 3 156 41 54 83 76 189
102 l96 23 28 138 c16 76 32 142 36 146 4 3 68 10 140 13 73 4 138 8 145 11 7
2 38 6 68 10 185 19 508 103 670 173 19 9 41 17 48 18 7 1 69 30 137 64 117
58 124 63 113 83 -6 11 -15 26 -20 31 -4 6 -38 53 -74 104 -53 76 -68 91 -82
83 -111 -59 -329 -145 -467 -184 -180 -51 -290 -70 -514 -92 l-63 -6 7 28 c13
53 106 231 174 334 69 105 220 269 316 345 28 21 52 42 55 45 3 4 64 45 135
92 132 86 366 209 463 243 29 10 51 23 50 29 -13 48 -94 275 -98 275 -3 -1
-34 -13 -70 -27z"/>
<path d="M2400 4596 c-372 -132 -601 -396 -655 -754 -8 -58 -9 -200 -1 -252 4
-25 10 -57 12 -72 2 -15 11 -58 19 -95 9 -37 17 -81 20 -98 2 -16 9 -50 15
-75 6 -25 12 -61 14 -80 3 -19 5 -36 5 -37 1 -1 254 146 278 161 0 1 -14 73
-32 161 -56 269 -41 436 54 584 76 118 197 211 341 262 80 29 77 25 66 99 -24
150 -41 215 -56 217 -8 1 -44 -9 -80 -21z"/>
<path d="M3494 4586 c-91 -33 -196 -84 -202 -98 -2 -5 -8 -8 -13 -8 -16 0
-139 -102 -189 -156 -115 -124 -193 -285 -221 -459 -17 -108 -6 -302 26 -450
47 -220 55 -279 54 -380 -2 -182 -63 -328 -186 -447 -49 -47 -240 -188 -256
-188 -12 0 -4 -63 9 -67 6 -2 26 20 43 50 43 69 89 101 149 101 l47 1 21 -65
c20 -63 21 -64 34 -40 7 14 20 30 28 36 13 9 12 14 -3 38 -23 35 -23 101 0
126 22 24 38 25 76 3 39 -23 55 -72 40 -126 -7 -26 -8 -54 -3 -72 l8 -29 35
35 c128 131 201 265 239 437 16 71 19 116 16 247 -3 142 -8 182 -44 350 -38
174 -41 200 -38 310 3 92 9 135 26 182 42 120 127 227 239 302 58 38 155 84
204 96 15 4 29 10 31 14 4 6 -40 254 -49 279 -6 17 -19 15 -121 -22z"/>
<path d="M447 3649 c-59 -12 -142 -49 -181 -80 -44 -36 -116 -138 -116 -165 0
-43 49 -126 106 -179 48 -45 103 -94 180 -158 132 -108 144 -126 144 -204 l0
-66 -67 6 c-131 13 -217 74 -288 206 -39 73 -61 74 -129 10 l-50 -47 22 -51
c60 -145 179 -251 283 -251 165 1 378 119 408 226 14 52 14 65 -5 109 -20 50
-85 118 -202 212 -168 135 -217 194 -210 251 5 41 66 69 119 53 52 -16 65 -39
72 -133 4 -42 5 -43 36 -40 37 3 101 50 122 89 8 14 13 45 12 69 -4 107 -118
171 -256 143z"/>
<path d="M2482 3480 c-32 -13 -69 -56 -82 -96 -9 -25 -9 -62 0 -145 7 -61 9
-121 6 -134 -4 -14 -20 -31 -40 -40 -34 -16 -58 -57 -49 -82 3 -8 22 -13 49
-13 l44 0 1 -37 c1 -100 28 -220 55 -247 19 -20 37 -20 73 -1 47 24 53 67 21
160 -25 73 -26 136 -2 157 9 9 48 19 87 23 68 7 149 38 173 68 10 11 3 16 -41
25 -28 7 -85 15 -126 18 -60 6 -78 12 -99 33 -24 24 -25 28 -15 86 12 70 9
137 -8 194 -13 44 -13 44 -47 31z"/>
<path d="M1031 3224 c-108 -39 -176 -109 -205 -215 -13 -44 -16 -109 -16 -307
0 -140 4 -262 10 -277 12 -33 33 -40 69 -25 48 19 66 69 67 185 l2 99 58 45
c130 98 221 211 250 310 22 75 16 178 -12 198 -29 21 -148 15 -223 -13z m94
-162 c1 -47 -3 -66 -15 -72 -8 -5 -11 -10 -6 -10 5 0 0 -10 -11 -22 -12 -13
-29 -39 -39 -58 -23 -43 -75 -102 -83 -94 -6 6 -9 53 -11 161 -1 51 4 72 26
111 l27 48 56 -1 56 0 0 -63z"/>
<path d="M2073 3204 c-48 -25 -128 -74 -178 -108 l-90 -62 1 -49 c2 -53 38
-247 54 -290 9 -23 12 -24 37 -13 90 38 126 108 153 297 17 119 44 158 100
144 11 -3 20 -8 20 -12 0 -3 9 -12 20 -19 16 -10 26 -10 43 -1 40 21 67 52 67
78 0 31 -7 42 -40 64 -42 29 -91 21 -187 -29z"/>
<path d="M1481 3207 c-145 -74 -232 -318 -160 -447 35 -62 79 -85 164 -85 84
1 117 16 191 89 76 77 98 125 99 216 0 57 -5 86 -22 120 -25 51 -77 108 -111
121 -42 16 -115 10 -161 -14z m49 -146 c0 -5 15 -12 34 -15 48 -9 67 -35 70
-98 3 -58 -7 -91 -39 -125 -21 -22 -23 -22 -78 -6 -49 14 -58 20 -67 49 -16
48 2 161 35 215 7 10 45 -7 45 -20z"/>
<path d="M2116 3028 c-15 -25 -22 -59 -32 -153 -3 -33 -10 -68 -15 -77 -5 -10
-7 -18 -4 -18 10 0 -47 -71 -88 -109 l-38 -36 21 -38 c11 -21 18 -42 15 -47
-3 -5 -1 -11 4 -15 14 -8 76 107 104 196 29 87 65 319 51 319 -2 0 -10 -10
-18 -22z"/>
<path d="M1759 2729 c-9 -13 -16 -28 -17 -33 0 -4 -41 -48 -92 -97 -98 -95
-236 -192 -360 -255 -41 -20 -78 -42 -82 -48 -4 -6 -8 -8 -8 -3 0 4 -22 -4
-49 -18 -58 -29 -223 -95 -301 -120 -30 -10 -58 -21 -63 -24 -5 -5 37 -165 76
-283 2 -8 135 36 262 87 117 46 288 130 387 188 133 80 124 72 111 99 -33 70
-40 137 -14 146 6 2 11 8 11 14 0 6 8 16 17 23 14 10 15 17 5 41 -6 16 -12 41
-14 55 -4 36 46 111 93 140 73 45 71 42 62 78 l-9 34 -15 -24z"/>
<path d="M5835 2716 c-36 -16 -70 -52 -81 -86 -4 -14 -7 -68 -6 -121 2 -90 1
-97 -23 -119 -32 -30 -32 -48 0 -45 24 3 25 1 25 -59 0 -73 15 -123 43 -148
15 -14 23 -15 34 -7 17 15 17 38 -2 82 -8 20 -15 66 -15 102 0 62 1 66 28 76
53 21 75 34 80 47 3 11 -8 13 -52 10 -32 -2 -57 1 -57 7 -1 6 -2 46 -3 90 -3
112 13 142 63 124 19 -7 22 -14 16 -32 -12 -36 -18 -107 -9 -107 19 1 52 36
61 65 18 55 -16 136 -56 135 -9 -1 -29 -7 -46 -14z"/>
<path d="M1777 2606 c-40 -15 -97 -71 -97 -96 0 -27 37 -72 112 -134 65 -55
73 -66 73 -96 0 -33 -2 -35 -30 -31 -56 6 -93 34 -131 97 -10 17 -14 18 -38 5
-15 -8 -26 -23 -26 -35 0 -26 45 -90 78 -112 49 -32 181 5 218 61 22 33 31 31
31 -7 0 -21 8 -37 24 -51 32 -26 122 -20 165 10 l29 21 28 -24 c43 -37 87 -32
137 15 l41 39 9 -23 c5 -13 21 -32 36 -41 26 -17 28 -17 74 9 58 33 58 33 62
5 5 -35 46 -35 88 0 l34 29 39 -31 c38 -30 39 -30 68 -13 27 15 32 15 45 2 29
-28 96 -12 147 36 19 17 19 19 3 19 -9 0 -31 -7 -47 -16 -52 -27 -79 15 -55
84 20 55 2 66 -36 23 -21 -23 -28 -41 -28 -72 0 -37 -2 -40 -22 -34 -38 11
-56 41 -63 107 -9 75 -19 98 -45 98 -41 0 -126 -100 -134 -159 -3 -19 -42 -41
-73 -41 -37 0 -46 32 -38 146 6 89 4 104 -8 104 -19 0 -47 -26 -48 -46 -1 -8
-3 -23 -4 -34 -1 -11 -3 -25 -4 -31 0 -7 -10 0 -22 15 -22 28 -73 36 -109 16
-31 -17 -61 -68 -68 -116 -4 -24 -10 -45 -14 -45 -4 0 -25 -6 -45 -13 -41 -14
-90 -6 -104 16 -14 21 -10 72 7 96 17 24 39 29 48 10 3 -9 11 -6 25 11 25 28
27 47 5 59 -40 22 -113 -29 -135 -95 -11 -33 -29 -45 -29 -19 0 17 -44 64
-118 125 -59 49 -75 72 -66 95 7 19 55 21 72 4 7 -7 12 -25 12 -40 0 -37 21
-36 54 2 22 26 24 34 14 61 -16 48 -68 60 -141 35z m907 -268 c-6 -7 -10 -20
-9 -28 0 -8 -4 -18 -10 -22 -5 -4 -10 -12 -10 -18 0 -5 -3 -10 -7 -10 -5 0
-13 0 -18 0 -12 0 -5 37 17 89 13 32 15 34 30 18 11 -11 13 -20 7 -29z m-360
8 c15 -5 18 -13 13 -43 -8 -49 -20 -59 -54 -47 -32 11 -41 42 -23 84 9 23 16
27 28 20 10 -5 25 -11 36 -14z"/>
<path d="M3846 2584 c-94 -34 -163 -101 -149 -143 3 -9 17 -28 30 -42 23 -25
24 -33 21 -118 -3 -80 -1 -91 14 -91 30 0 45 26 41 70 -4 39 -2 41 32 56 49
20 83 52 64 58 -15 6 -64 14 -90 15 -14 1 -17 11 -15 54 1 29 5 57 9 63 3 6
34 17 67 24 71 15 94 29 84 53 -8 21 -53 22 -108 1z"/>
<path d="M2852 2533 c-11 -19 12 -63 33 -63 25 0 39 29 27 55 -13 29 -46 33
-60 8z"/>
<path d="M4866 2527 c-25 -25 -26 -30 -20 -91 6 -58 4 -65 -15 -75 -27 -15
-27 -41 -1 -41 15 0 20 -7 20 -27 0 -43 20 -103 34 -103 6 0 20 6 29 13 14 10
15 18 7 47 -16 55 -13 90 8 91 44 4 59 7 81 18 32 18 15 30 -42 32 -56 3 -66
15 -60 73 3 22 0 52 -5 65 l-9 25 -27 -27z"/>
<path d="M5547 2543 c-13 -12 -7 -50 9 -64 31 -26 70 25 44 56 -13 16 -42 20
-53 8z"/>
<path d="M5344 2523 c-13 -14 -15 -29 -11 -81 4 -54 2 -66 -14 -80 -24 -21
-24 -42 0 -42 15 0 19 -10 23 -55 5 -64 17 -80 48 -70 19 6 22 12 17 44 -3 20
-9 45 -12 56 -8 29 5 42 48 49 21 3 48 11 59 17 29 15 6 29 -48 29 -49 0 -67
17 -63 62 6 87 -9 109 -47 71z"/>
<path d="M4660 2478 c-18 -18 -43 -37 -54 -43 -16 -8 -22 -21 -24 -55 -4 -73
-12 -108 -28 -125 -20 -20 -31 -19 -52 5 -19 24 -19 22 -21 95 -1 39 -5 55
-14 55 -73 0 -56 -197 18 -216 55 -14 96 19 131 105 l24 56 0 -52 c0 -41 5
-58 26 -82 32 -39 44 -39 100 -1 44 31 61 59 27 45 -83 -35 -95 -18 -91 121 1
62 0 116 -4 119 -3 3 -20 -9 -38 -27z"/>
<path d="M3858 2483 c-18 -4 -24 -28 -10 -36 4 -3 23 -8 43 -11 32 -5 38 -3
43 17 3 12 6 25 6 30 0 7 -53 8 -82 0z"/>
<path d="M3318 2433 c-36 -38 -48 -74 -48 -143 0 -48 4 -63 22 -80 28 -25 80
-26 133 -1 92 43 102 76 13 43 -41 -15 -58 -18 -73 -9 -50 27 -46 48 21 98 49
36 55 44 49 67 -13 57 -74 70 -117 25z m47 -53 c-3 -5 -11 -10 -16 -10 -6 0
-7 5 -4 10 3 6 11 10 16 10 6 0 7 -4 4 -10z"/>
<path d="M4020 2423 c-68 -57 -105 -160 -78 -215 13 -26 49 -22 88 11 l35 29
35 -29 c39 -33 56 -36 81 -13 16 14 20 14 43 -1 36 -24 122 -16 165 14 43 31
31 41 -33 26 -63 -15 -89 -4 -100 40 -12 49 41 126 57 83 3 -9 13 -5 31 13 27
25 27 26 9 48 -18 22 -21 22 -54 8 -54 -22 -99 -97 -99 -162 0 -42 -18 -46
-54 -10 -19 19 -26 39 -31 92 -4 37 -12 74 -17 81 -16 19 -44 14 -78 -15z m20
-85 c-5 -23 -7 -50 -5 -60 3 -12 -2 -18 -16 -18 -24 0 -26 35 -5 85 21 48 35
44 26 -7z"/>
<path d="M5108 2413 c-47 -44 -77 -102 -78 -154 0 -73 43 -88 105 -35 l28 24
38 -30 c38 -31 65 -32 89 -3 9 11 5 17 -19 29 -39 21 -50 43 -57 113 -11 104
-36 118 -106 56z m38 -60 c-2 -10 -7 -33 -11 -51 -4 -18 -15 -36 -24 -42 -16
-8 -17 -5 -11 33 10 57 19 77 37 77 9 0 12 -7 9 -17z"/>
<path d="M3110 2409 c-30 -16 -66 -38 -79 -48 -24 -19 -25 -20 -12 -83 7 -34
13 -69 13 -75 2 -18 11 -16 41 7 27 21 47 73 47 121 0 14 6 34 14 44 13 17 17
18 40 6 21 -11 28 -12 41 -1 20 16 19 46 -1 54 -28 11 -48 6 -104 -25z"/>
<path d="M5546 2349 c-20 -24 -26 -41 -26 -79 0 -63 19 -84 72 -77 45 6 124
60 96 65 -9 2 -30 -4 -46 -12 -28 -14 -32 -14 -52 2 -21 17 -22 19 -7 69 21
72 7 84 -37 32z"/>
<path d="M2133 2159 c-26 -13 -44 -14 -89 -7 -45 7 -66 5 -100 -8 -24 -9 -44
-19 -44 -21 0 -5 82 -277 84 -279 0 -1 35 9 76 23 162 52 400 157 544 239 98
56 92 52 78 66 -9 9 -21 7 -51 -6 -34 -16 -43 -16 -67 -4 -25 11 -33 11 -66
-5 -42 -21 -92 -16 -107 11 -9 15 -12 15 -47 -1 -56 -27 -104 -30 -144 -10
-33 17 -37 17 -67 2z"/>
<path d="M1963 1625 c-39 -17 -60 -48 -69 -102 -17 -110 28 -193 106 -193 77
0 116 64 107 178 -4 54 -10 69 -33 93 -35 34 -69 41 -111 24z m80 -29 c37 -29
49 -142 21 -201 -30 -64 -113 -53 -132 18 -17 58 -7 146 19 173 25 27 64 31
92 10z"/>
<path d="M4498 1618 c-40 -23 -58 -66 -58 -142 0 -92 42 -146 113 -146 46 0
91 40 101 91 29 148 -55 255 -156 197z m103 -34 c21 -22 24 -35 24 -99 0 -59
-4 -79 -21 -102 -38 -51 -104 -38 -124 23 -13 37 -11 130 2 156 26 54 80 64
119 22z"/>
<path d="M1708 1616 c-42 -32 -60 -129 -38 -208 21 -73 102 -102 154 -55 32
28 46 77 22 77 -9 0 -16 -8 -16 -18 0 -26 -37 -62 -64 -62 -54 0 -86 77 -72
178 7 55 29 82 67 82 31 0 69 -34 69 -61 0 -23 19 -34 26 -16 7 20 -21 74 -45
87 -27 14 -82 12 -103 -4z"/>
<path d="M2160 1480 c0 -127 2 -150 15 -150 12 0 15 20 16 118 0 108 1 115 14
87 8 -16 26 -70 41 -118 15 -53 30 -87 37 -84 6 2 24 48 40 103 16 54 33 103
38 109 5 5 9 -35 9 -103 0 -93 3 -112 15 -112 13 0 15 23 15 150 0 149 0 150
-23 150 -20 0 -25 -11 -51 -107 -16 -60 -32 -115 -37 -123 -9 -18 -4 -30 -51
123 -29 95 -35 107 -55 107 -23 0 -23 -1 -23 -150z"/>
<path d="M2467 1623 c-2 -5 -3 -71 -2 -147 0 -100 4 -141 13 -144 9 -3 12 21
13 90 1 51 1 101 0 111 -1 9 2 17 7 17 8 0 28 -55 63 -177 7 -24 17 -43 24
-43 6 0 24 46 40 103 15 56 32 109 36 117 5 9 9 -35 9 -102 0 -98 3 -118 15
-118 13 0 15 23 15 151 0 150 0 150 -22 147 -20 -3 -27 -18 -53 -115 -17 -61
-33 -114 -37 -118 -5 -5 -36 87 -74 218 -5 17 -39 24 -47 10z"/>
<path d="M2760 1505 c0 -120 1 -127 25 -150 30 -31 92 -34 126 -6 23 18 24 27
27 150 3 114 2 131 -12 131 -14 0 -16 -18 -16 -123 0 -136 -8 -157 -62 -157
-49 0 -58 25 -58 158 0 102 -2 122 -15 122 -13 0 -15 -21 -15 -125z"/>
<path d="M2997 1623 c-2 -5 -3 -71 -3 -147 1 -102 5 -141 14 -144 13 -4 15 22
13 156 -1 39 2 72 7 72 4 0 22 -28 40 -62 110 -212 117 -213 117 -25 0 76 -3
143 -7 150 -15 25 -22 -8 -19 -103 1 -58 -2 -100 -8 -100 -5 0 -17 15 -28 34
-81 147 -99 176 -110 176 -6 0 -13 -3 -16 -7z"/>
<path d="M3250 1480 l0 -150 76 0 c56 0 75 3 71 13 -2 8 -23 12 -60 11 l-57
-2 0 65 c0 61 1 64 23 63 50 -4 97 1 97 10 0 6 -27 10 -60 10 l-60 0 0 55 0
55 60 0 c33 0 60 4 60 10 0 6 -32 10 -75 10 l-75 0 0 -150z"/>
<path d="M3579 1628 c-5 -11 -3 -281 2 -290 11 -18 125 -5 150 18 69 61 62
221 -12 259 -23 12 -136 22 -140 13z m139 -45 c20 -20 24 -34 26 -104 1 -63
-16 -105 -48 -115 -26 -9 -69 -10 -82 -2 -7 5 -12 205 -5 240 2 13 93 -2 109
-19z"/>
<path d="M3830 1480 l0 -150 75 0 c43 0 75 4 75 10 0 11 -3 11 -70 14 l-45 1
-3 63 c-3 56 -1 63 15 62 10 -1 37 -2 61 -1 66 2 50 21 -18 21 l-60 0 0 55 0
55 60 0 c33 0 60 4 60 10 0 6 -32 10 -75 10 l-75 0 0 -150z"/>
<path d="M4150 1480 c0 -125 2 -150 15 -150 12 0 15 22 17 113 3 128 8 126 54
-26 15 -50 31 -86 38 -84 6 2 23 48 39 103 16 54 33 103 38 109 5 5 9 -35 9
-103 0 -93 3 -112 15 -112 13 0 15 23 15 150 0 149 0 150 -23 150 -23 0 -22 3
-79 -209 -5 -18 -13 -29 -17 -25 -4 5 -23 60 -42 122 -30 100 -36 112 -56 112
-23 0 -23 -1 -23 -150z"/>
<path d="M4710 1480 c0 -117 3 -151 12 -148 9 3 13 36 13 116 0 62 3 112 7
112 4 0 34 -52 68 -115 34 -65 68 -115 76 -115 11 0 14 26 14 150 0 127 -2
150 -15 150 -12 0 -15 -18 -15 -105 0 -105 -7 -125 -28 -82 -56 108 -103 183
-116 185 -14 3 -16 -14 -16 -148z"/>
<path d="M4936 1617 c3 -8 15 -13 27 -12 46 4 47 0 47 -141 0 -74 4 -134 9
-134 15 0 17 20 16 148 -1 79 3 123 9 124 6 0 22 1 35 2 13 1 26 7 28 14 4 9
-18 12 -86 12 -71 0 -89 -3 -85 -13z"/>
<path d="M5148 1608 c-2 -13 -2 -81 0 -151 2 -93 6 -127 15 -124 8 2 12 44 12
138 l0 134 29 3 c15 2 41 -2 56 -8 60 -25 44 -120 -20 -120 -17 0 -30 -2 -30
-5 0 -17 95 -145 108 -145 16 0 6 20 -45 88 l-24 32 23 9 c33 12 48 33 55 75
5 30 1 40 -25 66 -27 27 -37 30 -91 30 -54 0 -60 -2 -63 -22z"/>
<path d="M5380 1480 l0 -150 75 0 c41 0 75 4 75 9 0 13 -19 17 -72 16 l-48 -1
0 64 0 64 38 -2 c61 -3 82 -1 82 10 0 6 -27 10 -60 10 l-60 0 0 55 0 55 60 0
c33 0 60 4 60 10 0 6 -32 10 -75 10 l-75 0 0 -150z"/>
<path d="M5582 1499 c3 -123 4 -132 27 -150 31 -26 91 -25 125 2 26 20 26 22
26 150 0 108 -2 129 -15 129 -13 0 -15 -20 -15 -124 0 -137 -7 -156 -59 -156
-52 0 -61 23 -61 158 0 105 -2 122 -16 122 -14 0 -15 -17 -12 -131z"/>
<path d="M5810 1625 c0 -2 14 -34 32 -70 l32 -65 -37 -75 c-42 -85 -42 -85
-24 -85 7 0 26 27 41 60 16 34 32 63 36 65 3 2 22 -25 41 -60 51 -96 68 -82
19 16 l-41 80 32 65 c17 36 29 68 26 71 -11 10 -27 -9 -48 -58 -25 -57 -37
-54 -64 16 -9 25 -23 45 -31 45 -8 0 -14 -2 -14 -5z"/>
</g>
</svg>
