<?xml version="1.0"?>
<svg width="177" height="73" xmlns="http://www.w3.org/2000/svg">
 <style type="text/css">.st0{fill:#0055A3;}
	.st1{fill:#E30613;}
	.st2{stroke:#000000;stroke-width:0.1991;}
	.st3{fill:#FFFFFF;}
	.st4{fill:none;}</style>

 <g>
  <title>background</title>
  <rect fill="none" id="canvas_background" height="75" width="179" y="-1" x="-1"/>
 </g>
 <g>
  <title>Layer 1</title>
  <g stroke="null" id="svg_1">
   <g stroke="null" id="svg_2">
    <path stroke="null" id="svg_3" d="m82.650002,38.650002l-4.900002,0l-14.900002,-17.100002l0,17.100002l-4.900002,0l0,-24.700001l4.900002,0l14.900002,17.200001l0,-17.200001l5,0l0,24.700001l-0.099998,0z"/>
    <path stroke="null" id="svg_4" d="m171.550003,38.650002l-4.900009,0l-14.899994,-17.100002l0,17.100002l-4.899994,0l0,-24.700001l4.899994,0l14.800003,17.200001l0,-17.200001l4.899994,0l0,24.700001l0.100006,0z"/>
    <path stroke="null" id="svg_5" d="m97.550003,26.349998l-9.900002,-12.399998l6.400002,0l5.899994,7.5l5.900009,-7.5l6.399994,0l-9.899994,12.399998l0,12.400002l-4.900009,0l0,-12.400002l0.100006,0z"/>
    <path stroke="null" id="svg_6" d="m61.349998,9.150002l-0.199997,0l-3.200005,-7.5l1,0l2.200005,5.199997l2.199997,-5.199997l1.099998,0l-3.099998,7.5z"/>
    <path stroke="null" id="svg_7" d="m68.150002,9.049999l-1.099998,0l0,-7.399997l1.099998,0l0,7.399997z"/>
    <path stroke="null" id="svg_8" d="m73.349998,8.049999l3.400002,0l0,1l-4.400002,0l0,-7.399997l1.099998,0l0,6.399997l-0.099998,0z"/>
    <path stroke="null" id="svg_9" d="m80.75,8.049999l3.400002,0l0,1l-4.400002,0l0,-7.399997l1,0l0,6.399997z"/>
    <path stroke="null" id="svg_10" d="m90.75,2.549999l-3.099998,0l0,2.299999l3,0l0,0.900002l-3,0l0,2.299999l3.199997,0l0,1l-4.299995,0l0,-7.399997l4.199997,0l0,0.899998z"/>
    <path stroke="null" id="svg_11" d="m98.650002,1.650002l2.799995,0c2.800003,0 4,2 4,3.699997c0,1.900002 -1.5,3.700001 -4,3.700001l-2.899994,0l0,-7.399997l0.099998,0zm1.099998,6.399997l1.699997,0c2.5,0 3,-1.799999 3,-2.700001c0,-1.5 -0.899994,-2.799999 -3.099991,-2.799999l-1.600006,0l0,5.5z"/>
    <path stroke="null" id="svg_12" d="m112.149994,2.549999l-3.099991,0l0,2.299999l3,0l0,0.900002l-3,0l0,2.299999l3.199997,0l0,1l-4.300003,0l0,-7.399997l4.199997,0l0,0.899998z"/>
    <path stroke="null" id="svg_13" d="m127.149994,13.950001c-6.799988,0 -12.299988,5.599998 -12.299988,12.399998c0,6.800003 5.5,12.400002 12.299988,12.400002c6.800003,0 12.300003,-5.5 12.300003,-12.400002c0,-6.799999 -5.399994,-12.399998 -12.300003,-12.399998zm0,19.799999c-4.099991,0 -7.399994,-3.300003 -7.399994,-7.400002c0,-4.099998 3.399994,-7.399998 7.399994,-7.399998c4.100006,0 7.400009,3.299999 7.400009,7.399998c0,4.099998 -3.300003,7.400002 -7.400009,7.400002z"/>
   </g>
   <g stroke="null" id="svg_14">
    <path stroke="null" id="svg_15" d="m8.549999,57.349998c1.799999,0.200005 4.700001,1 7,1c0,0 2.299999,-0.099998 3.400002,0c1.099998,0.099998 1.399998,0.099998 2.599998,0.200005c0.700001,0.099998 2.400002,-0.100006 6.200001,-0.600006c3.400002,-0.5 4.799999,0.600006 6.900002,0.700005c2,0.099998 7.400002,-1 9.599998,0c1,0.400002 -0.5,1.699997 -2.5,1.799995c-2.400002,0.100006 -3.800003,2.300003 -5.599998,2.5c-1.800003,0.200005 -5.800003,-1 -8.100002,-0.799995c-2.299999,0.199997 -5.599998,1.099998 -7.399998,1.299995c-1.800003,0.200005 -5.100002,0.100006 -4.300003,0.800003c0.800003,0.599998 3.200001,1.099998 5.700001,0.800003c2.400002,-0.300003 3.400002,-0.600006 6.200001,-0.400002c2.799999,0.199997 4.599998,0.799995 7,0.699997c2.199997,-0.099998 2.199997,-0.5 7.599998,0.200005c3,0.399994 4.099998,-0.100006 4.200005,-0.400002c0.299995,-0.800003 -3.800003,-0.400002 -3.800003,-0.400002c-1.5,-0.099998 -2.400002,-0.099998 -3.900002,-1c-1.799995,-1.099998 5.099998,-1.699997 5.099998,-1.699997s2.800003,-0.5 1.900002,-1.300003c-0.599998,-0.5 -0.599998,-0.800003 0.400002,-0.599998c3,0.599998 4.400002,-0.599998 6.199997,-0.599998c2.900002,0 5.600006,0.199997 7.5,-0.200005c1.900002,-0.400002 3.800003,-1 3.800003,-1.400002c0,-0.699997 -3.599998,-0.199997 -4,-0.199997c-1.900002,0.199997 -4.199997,0.900002 -6.599998,0.800003c-2.400002,-0.100006 -6.300003,-0.800003 -6.400002,-2.400002c-0.099998,-1.599998 7.099998,-0.200005 9.099998,-0.300003c2,-0.099998 9.099998,-1.599998 9.099998,-2.900002c0,-1.399994 -4.799995,1.200005 -9.899994,0.600006c-1.900002,-0.200005 -7.900002,-1 -7.900002,-1c-1,-0.100006 -2.099998,-0.200005 -3,-0.200005c-3.800003,0.300003 -7.200005,1.300003 -6.5,0.200005c0.5,-0.800003 1.400002,-1.100006 2.099998,-1.200005c0.699997,-0.099998 3,-0.400002 1.5,-0.799995c-1.099998,-0.300003 -3,-0.200005 -4.599998,0.099998c-1.300003,0.299995 -5.200001,0.799995 -9.600002,0.099998c-3.399998,-0.599998 -5.099998,0.099998 -7.700001,0.199997c-2.5,0.100006 -4.799999,0.100006 -4.799999,0.700005c0,0.900002 7.5,0 9,0.599998c1.900002,0.800003 3.5,1 5.600002,0.699997c2.299999,-0.299995 7.299995,-0.5 5.899998,0.5c0,0 -2.399998,1.700005 0.799999,1.300003c2.800003,-0.400002 3.599998,-0.5 4.800003,-0.400002c1.299995,0 2.400002,-0.199997 2,0.400002c-0.5,0.699997 -1.900002,0.800003 -4.200005,1.099998c-2.199997,0.300003 -4.999996,1.599998 -9.499996,0.900002c0,0 -5.299999,-1.199997 -8.700001,-0.400002c-2.799999,0.599998 -2.299999,0.800003 -1.799999,0.800003c0.299999,0 1.799999,0 0.700001,0.400002c-0.800003,0.299995 -1.800003,0.299995 -4.200001,0.299995c-2.200001,0 -5.100002,-1.099998 -6.999998,-1.400002c0,0 -2.700002,-0.299995 -2.700002,0.200005c0.400002,0.599998 2.799998,0.699997 2.799998,0.699997z" class="st0"/>
    <path stroke="null" id="svg_16" d="m48.050003,49.849998c-3.5,0 -5.800003,-2 -6.900002,-2.299995c-2.599998,-0.700005 -4.400002,0.199997 -3.800003,0.599998c0.300003,0.199997 1.900002,0 2.800003,0.199997c1.199997,0.300003 -0.5,0.599998 -4.800003,0.800003c-4.5,0.199997 -4.799999,-0.5 -7,-0.900002l0,-34.299999l19.800003,0l0,32.999996c-0.300003,0.100006 -0.599998,0.100006 -0.900002,0.100006c-1.400002,0 -4,-0.300003 -3.5,0.299995c0.5,0.5 2.5,1.099998 4.5,1.099998c0,0 4.199997,0 4.099998,0.600006c-0.199997,0.799995 -4.299995,0.799995 -4.299995,0.799995z" class="st0"/>
   </g>
   <path stroke="null" id="svg_17" d="m28.349998,48.349998c-2.199997,-0.299995 -2.399998,-0.5 -4.5,-0.400002c-2.399998,0.100006 -4.099998,0.900002 -5.599998,1.300003c-1.5,0.400002 -5.5,1.099998 -5.200001,0.099998c0.100002,-0.199997 3.5,-1 4.400002,-1.299995c0.899998,-0.300003 2.099998,-0.5 2.299999,-0.900002c0.200001,-0.300003 -0.700001,-0.700005 -1.700001,-0.700005c-1.599998,0 -3.700001,0.5 -6.099998,0.700005c-1.100002,0.099998 -2.400002,-0.099998 -3.299998,-0.200005l0,-45.399997l19.699996,0l0,46.799999z" class="st1"/>
   <path stroke="null" id="svg_18" d="m12.950001,65.150002c1,-0.099998 1.599998,-0.200005 1.799999,-0.599998c0.200001,-0.400002 -2.099998,-0.300003 -2.099998,-0.300003c-0.400002,0 -1.800003,0 -2.100002,-0.599998c-0.399998,-0.700005 1.700001,-1.300003 4,-1.400002c4.100002,-0.199997 8.5,-1.599998 13.700001,-1.599998c1.599998,0 3.799999,0.5 5.299999,0.599998c0.700001,0 2.100002,-0.5 2,-0.800003c0,-0.299995 -1.299999,-0.099998 -2.200001,-0.099998c-1.099998,0 -2.599998,-0.900002 -4.199997,-0.900002c-4,0.100006 -9.700001,0.900002 -9.700001,0.900002c-4.799999,0.400002 -9.299999,-0.5 -11.100002,-0.699997c0,0 -3.799999,-0.400002 -3.599998,0.099998c0.200002,0.5 1.900002,1.5 2.900002,1.800003c0.999999,0.299995 2.099997,0.899994 1.099997,1.099998c-0.999999,0.199997 -4.799998,0.5 -3.099997,1.299995c-0.100004,0 2.199996,1.600006 7.299997,1.200005z" class="st1"/>
   <path stroke="null" id="svg_19" d="m33.25,69.349998c0.5,0 2,-0.099998 -0.700001,-1c-2.5,-0.799995 2.700001,-0.799995 3.299999,-1.099998c0.700005,-0.300003 -1.699997,-0.699997 -4.099998,-0.900002c-2.299999,-0.199997 -4.099998,0.099998 -4.099998,0.099998c-2.200001,0.300003 -2,0.200005 -3.600002,0c-1.599998,-0.099998 -3.299999,0 -3.799999,0.400002c-0.599998,0.400002 1.299999,0.700005 2.099998,0.800003c0,0 3.600002,0.099998 4.400002,0.099998c0.799999,-0.099998 2,0 1.700001,0.300003c-0.200001,0.299995 -1.5,0.899994 -2.600002,1.099998c-0.699997,0.099998 -1.5,0.199997 -2.099998,0.699997c-0.799999,0.599998 2.299999,1.099998 2.900002,1.099998c0.599998,0 0.699997,-0.199997 -0.100002,-0.299995c-2.399998,-0.400002 0.799999,-0.400002 2.5,-1.200005c1.200001,-0.599998 3.700001,-0.099998 4.200001,-0.099998z" class="st1"/>
   <path stroke="null" id="svg_20" d="m6.250002,53.650002c1.400002,0 2.799997,-0.099998 3.599997,-0.099998c0.800003,0 -0.699997,0.299995 -1.699996,0.599998c-0.800003,0.199997 -0.600003,0.5 3.099998,0.900002c2.400002,0.199997 5,-0.400002 5,-0.400002c3.299999,-0.700005 8.5,0.099998 8.5,0.099998c2.799999,0.300003 3.900002,-0.199997 4.299999,-0.599998c0.400002,-0.400002 -1.200001,-0.099998 -2.399998,-0.099998c-1.900002,0 -3.900002,-0.300003 -3.900002,-0.300003s-3.900002,-0.800003 -6.700001,-0.699997c-2.700001,0.099998 -4.299999,-0.200005 -4.299999,-0.600006c0,-0.399994 1,-0.399994 1.299999,-0.799995c0.100002,-0.200005 -0.200001,-0.400002 -1.799999,-0.200005c-1.700001,0.200005 -2.200001,0.700005 -5.599997,0.300003c0,0 -4.300002,-0.300003 -4.200001,0.5c0.199999,1 2.399998,1.300003 4.8,1.400002z" class="st1"/>
   <g stroke="null" id="svg_21">
    <path stroke="null" id="svg_22" d="m44.25,37.25c-0.5,-0.699997 -1.199997,-1.900002 -1.199997,-2.599998c0,-0.400002 0.299995,-1.099998 0.599998,-1.599998c0.199997,-0.5 0.400002,-0.800003 0.400002,-1c0,-0.5 -0.300003,-0.5 -0.5,-0.5c-0.5,0 -1.200005,0.5 -2.200005,1.099998c-1.199997,0.799995 -2.599998,1.699997 -3.799995,1.699997c-0.5,0 -1.100006,-0.099998 -1.800003,-0.299995c0.300003,-0.200005 0.599998,-0.300003 0.699997,-0.400002c0.300003,-0.200005 0.300003,-0.400002 0.100006,-0.800003c-0.300003,-0.599998 -3.300003,-3 -4.000004,-3.299995c-0.299999,-0.100006 -0.799999,-0.100006 -1.099998,0.199997c0,0 -0.600002,0.599998 -0.600002,0.599998c-0.5,0.5 -1.5,1.5 -1.799999,1.5l0,0l0,0l0,0c-1,-3.199997 -3.200001,-4.099998 -5,-4.399998c-1.399998,-0.200001 -3,0.099998 -3.099998,0.399998c0,0 -1.200001,2.200005 -1.799999,3.400002c-1.300003,0.400002 -2.200001,1 -2.700001,1.400002l-0.200001,0.199997c-0.099998,0.099998 -0.5,0.200005 -0.900002,0.400002c-2,0.800003 -4,1.699997 -4,2.599998c0,1.200005 5.5,2.400002 9.100002,2.700005c0.299999,1.299995 1.899998,3.799995 2.799999,3.799995c0.5,0 0.900002,-0.400002 0.900002,-1c0,-0.400002 0.099998,-0.900002 0.199997,-1.400002c0.100002,-0.299995 0.100002,-0.599998 0.100002,-0.699997c0,-0.300003 -0.100002,-0.5 -0.299999,-0.800003c3,-0.099998 5,-0.399994 6.599998,-0.699997c0.5,0.599998 2.299999,2.400002 2.700001,2.599998c0.399998,0.200005 0.799999,0.200005 1.099998,0.099998c0.299999,-0.099998 0.600002,-0.399994 0.600002,-0.599998c0.099998,-0.400002 0.199997,-1.599998 0.199997,-1.900002c0,-0.399994 -0.199997,-0.699997 -0.5,-0.899994c-0.099998,-0.100006 -0.299999,-0.100006 -0.599998,-0.200005c1,-0.199997 2,-0.400002 3.400002,-0.400002c1.099998,0 2.900002,0.800003 4.299995,1.400002c1,0.400002 1.800003,0.700005 2.200005,0.700005c0.400002,0 0.599998,-0.300003 0.599998,-0.5c0,0.099998 -0.199997,-0.200005 -0.5,-0.800003z" class="st2"/>
    <g stroke="null" id="svg_23">
     <path stroke="null" id="svg_24" d="m28.349998,31.75c0,0 0.200001,0 0.300003,0.099998c-0.600002,-1.900002 -1.700001,-3.099998 -3.400002,-3.699997c-1.900002,-0.700001 -3.799999,-0.200001 -4,-0.100002c0,0 -1,1.899998 -1.599998,3.100002c0.5,-0.099998 1.099998,-0.200005 1.699997,-0.200005c3.300003,0 5.900002,0.600006 7,0.800003z" class="st3"/>
    </g>
    <g stroke="null" id="svg_25">
     <path stroke="null" id="svg_26" d="m35.349998,33.849998c0.400002,-0.199997 0.900002,-0.400002 1,-0.5c0.099998,-0.099998 0.099998,-0.099998 0,-0.299995c-0.299995,-0.400002 -3.199997,-2.800003 -3.899998,-3.200005c-0.100002,-0.099998 -0.5,-0.099998 -0.799999,0.099998l-0.600002,0.600006c-0.599998,0.599998 -1,1 -1.299999,1.199997c0.400002,0.099998 1.099998,0.400002 2.299999,0.800003c0.900002,0.5 2.200001,1 3.299999,1.299995z" class="st3"/>
    </g>
    <g stroke="null" id="svg_27">
     <path stroke="null" id="svg_28" d="m34.650002,37.75c-0.300003,-0.199997 -1,-0.400002 -1.200001,-0.400002c-0.200001,0 -0.400002,0.099998 -0.600002,0.200005c-0.599998,0.199997 -1.199997,0.399994 -1.899998,0.5c0.599998,0.699997 2.099998,2.199997 2.5,2.399994c0.299999,0.100006 0.5,0.200005 0.799999,0.100006c0.299999,-0.100006 0.400002,-0.300003 0.400002,-0.400002c0.099998,-0.200005 0.199997,-1.300003 0.199997,-1.800003c0.100002,-0.400002 0,-0.599998 -0.199997,-0.599998z" class="st3"/>
    </g>
    <g stroke="null" id="svg_29">
     <path stroke="null" id="svg_30" d="m23.450001,38.75c-0.400002,0 -0.799999,0 -1.200001,0c-0.5,0 -1,0 -1.5,-0.099998c0.299999,1.199997 1.900002,3.400002 2.400002,3.400002c0.5,0 0.5,-0.400002 0.5,-0.600006c0,-0.399994 0.099998,-1 0.199997,-1.399994c0.100002,-0.200005 0.100002,-0.5 0.100002,-0.600006c0,-0.299995 -0.200001,-0.5 -0.5,-0.699997z" class="st3"/>
    </g>
    <path stroke="null" id="svg_31" d="m11.650002,35.849998c0,-0.699997 2.599998,-1.799995 3.799999,-2.299995c0.5,-0.200005 0.799999,-0.300003 1,-0.400002c0,0 0.299999,-0.200005 0.299999,-0.200005c0.700001,-0.599998 2.200001,-1.599998 4.599998,-1.599998c3.400002,0 5.900002,0.5 7,0.800003l0.5,0.099998l0.300003,0l0.5,0c0.299999,0 1.299999,0.400002 2.299999,0.800003c1.899998,0.799995 4.399998,1.699997 5.700001,1.699997c1.299995,0 2.799995,-1 4,-1.800003c0.799995,-0.599998 1.599998,-1.099998 2,-1.099998c0,0 0.099998,0 0.099998,0.200005c0,0.099998 -0.199997,0.5 -0.300003,0.899994c-0.299995,0.600006 -0.599998,1.200005 -0.599998,1.800003c0,0.800003 0.700005,2 1.200005,2.800003c0.299995,0.399994 0.5,0.699997 0.5,0.799995c0,0 0,0.099998 -0.200005,0.099998c-0.400002,0 -1.199997,-0.299995 -2.099998,-0.699997c-1.5,-0.699997 -3.300003,-1.400002 -4.400002,-1.400002c-2,0 -3.299999,0.300003 -4.799999,0.700005c-2,0.599998 -4.599998,1.299995 -10.599998,1.299995c-4,0 -10.799999,-1.599998 -10.799999,-2.5z" class="st3"/>
    <g stroke="null" id="svg_32">
     <g stroke="null" id="svg_33">
      <path stroke="null" id="svg_34" d="m23.049999,35.349998c0,0 -0.5,0.200005 -0.799999,0.400002c-0.400002,0.199997 -0.299999,0.300003 0.099998,0.199997c0.300003,-0.099998 0.900002,-0.299995 0.900002,-0.299995c0.5,-0.200005 1.200001,-0.400002 2,-0.400002c0.299999,0 1.099998,0 1.099998,0.5c0,0.699997 -1.399998,1.199997 -3.099998,1.099998c-0.700001,0 -1.200001,0 -1.5,-0.099998c-0.200001,0 -0.299999,0.099998 -0.099998,0.199997c0.199997,0.100006 1.099998,0.200005 1.599998,0.200005c2.700001,0.099998 3.599998,-0.599998 3.599998,-1.400002c0,-0.599998 -0.599998,-0.900002 -1.5,-0.900002c-1.099998,0 -1.799999,0.300003 -2.299999,0.5z"/>
     </g>
     <path stroke="null" id="svg_35" d="m15.25,34.650002c0.099998,0.099998 0.400002,0.400002 0.099998,0.400002c-0.299999,0.099998 -1.399998,0.399994 -1.199997,-0.300003c0.099998,-0.699997 0.699997,-0.400002 1.099998,-0.099998z"/>
     <g stroke="null" id="svg_36">
      <path stroke="null" id="svg_37" d="m17.75,33.449997c0,0.100006 0,0.100006 0.099998,0.100006l0,0c0.100002,0.099998 0.400002,0.299995 0.5,0.399994c0.100002,0.100006 0.300003,1.600006 -0.099998,2.5c-0.099998,0.300003 -0.299999,0.5 -0.5,0.600006c0,0 -0.099998,0.099998 -0.099998,0.099998c0,0.099998 0.099998,0.099998 0.199997,0c0.100002,0 1.5,-0.5 0.900002,-3.300003c0,-0.199997 -0.799999,-0.400002 -1,-0.400002l0,0l0,0z"/>
     </g>
    </g>
   </g>
  </g>
 </g>
</svg>