<?xml version="1.0" encoding="utf-8"?>
<!-- Generator: Adobe Illustrator 22.1.0, SVG Export Plug-In . SVG Version: 6.00 Build 0)  -->
<svg version="1.1" id="Calque_1" xmlns="http://www.w3.org/2000/svg" xmlns:xlink="http://www.w3.org/1999/xlink" x="0px" y="0px"
	 viewBox="0 0 226.8 119.1" style="enable-background:new 0 0 226.8 119.1;" xml:space="preserve">
<style type="text/css">
	.st0{fill:#0055A3;}
	.st1{fill:#E30613;}
	.st2{stroke:#000000;stroke-width:0.1991;}
	.st3{fill:#FFFFFF;}
	.st4{fill:none;}
</style>
<g>
	<g>
		<path d="M110.9,73.9H106L91.1,56.8v17.1h-4.9V49.2h4.9L106,66.4V49.2h5V73.9z"/>
		<path d="M199.8,73.9h-4.9l-14.9-17.1v17.1h-4.9V49.2h4.9l14.8,17.2V49.2h4.9V73.9z"/>
		<path d="M125.8,61.6l-9.9-12.4h6.4l5.9,7.5l5.9-7.5h6.4l-9.9,12.4v12.4h-4.9V61.6z"/>
		<path d="M89.6,44.4h-0.2l-3.2-7.5h1l2.2,5.2l2.2-5.2h1.1L89.6,44.4z"/>
		<path d="M96.4,44.3h-1.1v-7.4h1.1V44.3z"/>
		<path d="M101.6,43.3h3.4v1h-4.4v-7.4h1.1V43.3z"/>
		<path d="M109,43.3h3.4v1H108v-7.4h1V43.3z"/>
		<path d="M119,37.8h-3.1v2.3h3V41h-3v2.3h3.2v1h-4.3v-7.4h4.2V37.8z"/>
		<path d="M126.9,36.9h2.8c2.8,0,4,2,4,3.7c0,1.9-1.5,3.7-4,3.7h-2.9V36.9z M128,43.3h1.7c2.5,0,3-1.8,3-2.7c0-1.5-0.9-2.8-3.1-2.8
			H128V43.3z"/>
		<path d="M140.4,37.8h-3.1v2.3h3V41h-3v2.3h3.2v1h-4.3v-7.4h4.2V37.8z"/>
		<path d="M155.4,49.2c-6.8,0-12.3,5.6-12.3,12.4c0,6.8,5.5,12.4,12.3,12.4c6.8,0,12.3-5.5,12.3-12.4
			C167.7,54.8,162.3,49.2,155.4,49.2z M155.4,69c-4.1,0-7.4-3.3-7.4-7.4c0-4.1,3.4-7.4,7.4-7.4c4.1,0,7.4,3.3,7.4,7.4
			C162.8,65.7,159.5,69,155.4,69z"/>
	</g>
	<g>
		<path class="st0" d="M36.8,92.6c1.8,0.2,4.7,1,7,1c0,0,2.3-0.1,3.4,0c1.1,0.1,1.4,0.1,2.6,0.2c0.7,0.1,2.4-0.1,6.2-0.6
			c3.4-0.5,4.8,0.6,6.9,0.7c2,0.1,7.4-1,9.6,0c1,0.4-0.5,1.7-2.5,1.8c-2.4,0.1-3.8,2.3-5.6,2.5c-1.8,0.2-5.8-1-8.1-0.8
			c-2.3,0.2-5.6,1.1-7.4,1.3c-1.8,0.2-5.1,0.1-4.3,0.8c0.8,0.6,3.2,1.1,5.7,0.8c2.4-0.3,3.4-0.6,6.2-0.4c2.8,0.2,4.6,0.8,7,0.7
			c2.2-0.1,2.2-0.5,7.6,0.2c3,0.4,4.1-0.1,4.2-0.4c0.3-0.8-3.8-0.4-3.8-0.4c-1.5-0.1-2.4-0.1-3.9-1c-1.8-1.1,5.1-1.7,5.1-1.7
			s2.8-0.5,1.9-1.3c-0.6-0.5-0.6-0.8,0.4-0.6c3,0.6,4.4-0.6,6.2-0.6c2.9,0,5.6,0.2,7.5-0.2c1.9-0.4,3.8-1,3.8-1.4
			c0-0.7-3.6-0.2-4-0.2c-1.9,0.2-4.2,0.9-6.6,0.8c-2.4-0.1-6.3-0.8-6.4-2.4c-0.1-1.6,7.1-0.2,9.1-0.3c2-0.1,9.1-1.6,9.1-2.9
			c0-1.4-4.8,1.2-9.9,0.6c-1.9-0.2-7.9-1-7.9-1c-1-0.1-2.1-0.2-3-0.2c-3.8,0.3-7.2,1.3-6.5,0.2c0.5-0.8,1.4-1.1,2.1-1.2
			c0.7-0.1,3-0.4,1.5-0.8c-1.1-0.3-3-0.2-4.6,0.1c-1.3,0.3-5.2,0.8-9.6,0.1c-3.4-0.6-5.1,0.1-7.7,0.2c-2.5,0.1-4.8,0.1-4.8,0.7
			c0,0.9,7.5,0,9,0.6c1.9,0.8,3.5,1,5.6,0.7c2.3-0.3,7.3-0.5,5.9,0.5c0,0-2.4,1.7,0.8,1.3c2.8-0.4,3.6-0.5,4.8-0.4
			c1.3,0,2.4-0.2,2,0.4c-0.5,0.7-1.9,0.8-4.2,1.1c-2.2,0.3-5,1.6-9.5,0.9c0,0-5.3-1.2-8.7-0.4c-2.8,0.6-2.3,0.8-1.8,0.8
			c0.3,0,1.8,0,0.7,0.4c-0.8,0.3-1.8,0.3-4.2,0.3c-2.2,0-5.1-1.1-7-1.4c0,0-2.7-0.3-2.7,0.2C34.4,92.5,36.8,92.6,36.8,92.6z"/>
		<path class="st0" d="M76.3,85.1c-3.5,0-5.8-2-6.9-2.3c-2.6-0.7-4.4,0.2-3.8,0.6c0.3,0.2,1.9,0,2.8,0.2c1.2,0.3-0.5,0.6-4.8,0.8
			c-4.5,0.2-4.8-0.5-7-0.9V49.2h19.8l0,33c-0.3,0.1-0.6,0.1-0.9,0.1c-1.4,0-4-0.3-3.5,0.3c0.5,0.5,2.5,1.1,4.5,1.1
			c0,0,4.2,0,4.1,0.6C80.4,85.1,76.3,85.1,76.3,85.1z"/>
	</g>
	<path class="st1" d="M56.6,83.6c-2.2-0.3-2.4-0.5-4.5-0.4c-2.4,0.1-4.1,0.9-5.6,1.3c-1.5,0.4-5.5,1.1-5.2,0.1
		c0.1-0.2,3.5-1,4.4-1.3c0.9-0.3,2.1-0.5,2.3-0.9c0.2-0.3-0.7-0.7-1.7-0.7c-1.6,0-3.7,0.5-6.1,0.7c-1.1,0.1-2.4-0.1-3.3-0.2l0-45.4
		l19.7,0L56.6,83.6z"/>
	<path class="st1" d="M41.2,100.4c1-0.1,1.6-0.2,1.8-0.6c0.2-0.4-2.1-0.3-2.1-0.3c-0.4,0-1.8,0-2.1-0.6c-0.4-0.7,1.7-1.3,4-1.4
		c4.1-0.2,8.5-1.6,13.7-1.6c1.6,0,3.8,0.5,5.3,0.6c0.7,0,2.1-0.5,2-0.8c0-0.3-1.3-0.1-2.2-0.1c-1.1,0-2.6-0.9-4.2-0.9
		c-4,0.1-9.7,0.9-9.7,0.9c-4.8,0.4-9.3-0.5-11.1-0.7c0,0-3.8-0.4-3.6,0.1c0.2,0.5,1.9,1.5,2.9,1.8c1,0.3,2.1,0.9,1.1,1.1
		c-1,0.2-4.8,0.5-3.1,1.3C33.8,99.2,36.1,100.8,41.2,100.4z"/>
	<path class="st1" d="M61.5,104.6c0.5,0,2-0.1-0.7-1c-2.5-0.8,2.7-0.8,3.3-1.1c0.7-0.3-1.7-0.7-4.1-0.9c-2.3-0.2-4.1,0.1-4.1,0.1
		c-2.2,0.3-2,0.2-3.6,0c-1.6-0.1-3.3,0-3.8,0.4c-0.6,0.4,1.3,0.7,2.1,0.8c0,0,3.6,0.1,4.4,0.1c0.8-0.1,2,0,1.7,0.3
		c-0.2,0.3-1.5,0.9-2.6,1.1c-0.7,0.1-1.5,0.2-2.1,0.7c-0.8,0.6,2.3,1.1,2.9,1.1c0.6,0,0.7-0.2-0.1-0.3c-2.4-0.4,0.8-0.4,2.5-1.2
		C58.5,104.1,61,104.6,61.5,104.6z"/>
	<path class="st1" d="M34.5,88.9c1.4,0,2.8-0.1,3.6-0.1c0.8,0-0.7,0.3-1.7,0.6c-0.8,0.2-0.6,0.5,3.1,0.9c2.4,0.2,5-0.4,5-0.4
		C47.8,89.2,53,90,53,90c2.8,0.3,3.9-0.2,4.3-0.6c0.4-0.4-1.2-0.1-2.4-0.1c-1.9,0-3.9-0.3-3.9-0.3s-3.9-0.8-6.7-0.7
		c-2.7,0.1-4.3-0.2-4.3-0.6c0-0.4,1-0.4,1.3-0.8c0.1-0.2-0.2-0.4-1.8-0.2c-1.7,0.2-2.2,0.7-5.6,0.3c0,0-4.3-0.3-4.2,0.5
		C29.9,88.5,32.1,88.8,34.5,88.9z"/>
	<g>
		<path class="st2" d="M72.5,72.5c-0.5-0.7-1.2-1.9-1.2-2.6c0-0.4,0.3-1.1,0.6-1.6c0.2-0.5,0.4-0.8,0.4-1c0-0.5-0.3-0.5-0.5-0.5
			c-0.5,0-1.2,0.5-2.2,1.1c-1.2,0.8-2.6,1.7-3.8,1.7c-0.5,0-1.1-0.1-1.8-0.3c0.3-0.2,0.6-0.3,0.7-0.4c0.3-0.2,0.3-0.4,0.1-0.8
			c-0.3-0.6-3.3-3-4-3.3c-0.3-0.1-0.8-0.1-1.1,0.2c0,0-0.6,0.6-0.6,0.6c-0.5,0.5-1.5,1.5-1.8,1.5v0l0,0h0c-1-3.2-3.2-4.1-5-4.4
			c-1.4-0.2-3,0.1-3.1,0.4c0,0-1.2,2.2-1.8,3.4c-1.3,0.4-2.2,1-2.7,1.4l-0.2,0.2c-0.1,0.1-0.5,0.2-0.9,0.4c-2,0.8-4,1.7-4,2.6
			c0,1.2,5.5,2.4,9.1,2.7c0.3,1.3,1.9,3.8,2.8,3.8c0.5,0,0.9-0.4,0.9-1c0-0.4,0.1-0.9,0.2-1.4c0.1-0.3,0.1-0.6,0.1-0.7
			c0-0.3-0.1-0.5-0.3-0.8c3-0.1,5-0.4,6.6-0.7c0.5,0.6,2.3,2.4,2.7,2.6c0.4,0.2,0.8,0.2,1.1,0.1c0.3-0.1,0.6-0.4,0.6-0.6
			c0.1-0.4,0.2-1.6,0.2-1.9c0-0.4-0.2-0.7-0.5-0.9c-0.1-0.1-0.3-0.1-0.6-0.2c1-0.2,2-0.4,3.4-0.4c1.1,0,2.9,0.8,4.3,1.4
			c1,0.4,1.8,0.7,2.2,0.7c0.4,0,0.6-0.3,0.6-0.5C73,73.4,72.8,73.1,72.5,72.5z"/>
		<g>
			<path class="st3" d="M56.6,67c0,0,0.2,0,0.3,0.1c-0.6-1.9-1.7-3.1-3.4-3.7c-1.9-0.7-3.8-0.2-4-0.1c0,0-1,1.9-1.6,3.1
				c0.5-0.1,1.1-0.2,1.7-0.2C52.9,66.2,55.5,66.8,56.6,67z"/>
		</g>
		<g>
			<path class="st3" d="M63.6,69.1c0.4-0.2,0.9-0.4,1-0.5c0.1-0.1,0.1-0.1,0-0.3c-0.3-0.4-3.2-2.8-3.9-3.2c-0.1-0.1-0.5-0.1-0.8,0.1
				l-0.6,0.6c-0.6,0.6-1,1-1.3,1.2c0.4,0.1,1.1,0.4,2.3,0.8C61.2,68.3,62.5,68.8,63.6,69.1z"/>
		</g>
		<g>
			<path class="st3" d="M62.9,73c-0.3-0.2-1-0.4-1.2-0.4c-0.2,0-0.4,0.1-0.6,0.2c-0.6,0.2-1.2,0.4-1.9,0.5c0.6,0.7,2.1,2.2,2.5,2.4
				c0.3,0.1,0.5,0.2,0.8,0.1c0.3-0.1,0.4-0.3,0.4-0.4c0.1-0.2,0.2-1.3,0.2-1.8C63.2,73.2,63.1,73,62.9,73z"/>
		</g>
		<g>
			<path class="st3" d="M51.7,74c-0.4,0-0.8,0-1.2,0c-0.5,0-1,0-1.5-0.1c0.3,1.2,1.9,3.4,2.4,3.4c0.5,0,0.5-0.4,0.5-0.6
				c0-0.4,0.1-1,0.2-1.4c0.1-0.2,0.1-0.5,0.1-0.6C52.2,74.4,52,74.2,51.7,74z"/>
		</g>
		<path class="st3" d="M39.9,71.1c0-0.7,2.6-1.8,3.8-2.3c0.5-0.2,0.8-0.3,1-0.4c0,0,0.3-0.2,0.3-0.2c0.7-0.6,2.2-1.6,4.6-1.6
			c3.4,0,5.9,0.5,7,0.8l0.5,0.1l0.3,0l0.5,0c0.3,0,1.3,0.4,2.3,0.8c1.9,0.8,4.4,1.7,5.7,1.7c1.3,0,2.8-1,4-1.8
			c0.8-0.6,1.6-1.1,2-1.1c0,0,0.1,0,0.1,0.2c0,0.1-0.2,0.5-0.3,0.9c-0.3,0.6-0.6,1.2-0.6,1.8c0,0.8,0.7,2,1.2,2.8
			c0.3,0.4,0.5,0.7,0.5,0.8c0,0,0,0.1-0.2,0.1c-0.4,0-1.2-0.3-2.1-0.7c-1.5-0.7-3.3-1.4-4.4-1.4c-2,0-3.3,0.3-4.8,0.7
			c-2,0.6-4.6,1.3-10.6,1.3C46.7,73.6,39.9,72,39.9,71.1z"/>
		<g>
			<g>
				<path d="M51.3,70.6c0,0-0.5,0.2-0.8,0.4c-0.4,0.2-0.3,0.3,0.1,0.2c0.3-0.1,0.9-0.3,0.9-0.3c0.5-0.2,1.2-0.4,2-0.4
					c0.3,0,1.1,0,1.1,0.5c0,0.7-1.4,1.2-3.1,1.1c-0.7,0-1.2,0-1.5-0.1c-0.2,0-0.3,0.1-0.1,0.2c0.2,0.1,1.1,0.2,1.6,0.2
					c2.7,0.1,3.6-0.6,3.6-1.4c0-0.6-0.6-0.9-1.5-0.9C52.5,70.1,51.8,70.4,51.3,70.6z"/>
			</g>
			<path d="M43.5,69.9c0.1,0.1,0.4,0.4,0.1,0.4c-0.3,0.1-1.4,0.4-1.2-0.3C42.5,69.3,43.1,69.6,43.5,69.9z"/>
			<g>
				<path d="M46,68.7c0,0.1,0,0.1,0.1,0.1l0,0c0.1,0.1,0.4,0.3,0.5,0.4c0.1,0.1,0.3,1.6-0.1,2.5c-0.1,0.3-0.3,0.5-0.5,0.6
					c0,0-0.1,0.1-0.1,0.1c0,0.1,0.1,0.1,0.2,0c0.1,0,1.5-0.5,0.9-3.3C47,68.9,46.2,68.7,46,68.7L46,68.7L46,68.7z"/>
			</g>
		</g>
	</g>
	<rect x="0" y="0" class="st4" width="226.8" height="119.1"/>
</g>
</svg>
