<?xml version="1.0" encoding="UTF-8" standalone="no"?>
<!-- Created with Inkscape (http://www.inkscape.org/) -->

<svg
   xmlns:dc="http://purl.org/dc/elements/1.1/"
   xmlns:cc="http://creativecommons.org/ns#"
   xmlns:rdf="http://www.w3.org/1999/02/22-rdf-syntax-ns#"
   xmlns:svg="http://www.w3.org/2000/svg"
   xmlns="http://www.w3.org/2000/svg"
   xmlns:sodipodi="http://sodipodi.sourceforge.net/DTD/sodipodi-0.dtd"
   xmlns:inkscape="http://www.inkscape.org/namespaces/inkscape"
   id="svg2"
   version="1.1"
   inkscape:version="0.48.2 r9819"
   width="145.39137"
   height="244.65512"
   xml:space="preserve"
   sodipodi:docname="logo-etat-vd.svg"><metadata
     id="metadata8"><rdf:RDF><cc:Work
         rdf:about=""><dc:format>image/svg+xml</dc:format><dc:type
           rdf:resource="http://purl.org/dc/dcmitype/StillImage" /><dc:title></dc:title></cc:Work></rdf:RDF></metadata><defs
     id="defs6"><clipPath
       clipPathUnits="userSpaceOnUse"
       id="clipPath18"><path
         d="m 0,841.89 595.276,0 L 595.276,0 0,0 0,841.89 z"
         id="path20"
         inkscape:connector-curvature="0" /></clipPath><clipPath
       clipPathUnits="userSpaceOnUse"
       id="clipPath28"><path
         d="m 44.798,516.146 123.78,0 0,200.361 -123.78,0 0,-200.361 z"
         id="path30"
         inkscape:connector-curvature="0" /></clipPath><clipPath
       clipPathUnits="userSpaceOnUse"
       id="clipPath152"><path
         d="m 448.058,334.785 97.862,0 0,36.098 -97.862,0 0,-36.098 z"
         id="path154"
         inkscape:connector-curvature="0" /></clipPath><clipPath
       clipPathUnits="userSpaceOnUse"
       id="clipPath276"><path
         d="m 445.223,203.11 58.157,0 0,97.862 -58.157,0 0,-97.862 z"
         id="path278"
         inkscape:connector-curvature="0" /></clipPath><clipPath
       clipPathUnits="userSpaceOnUse"
       id="clipPath414"><path
         d="m 129.704,198.614 38.873,0 0,102.359 -38.873,0 0,-102.359 z"
         id="path416"
         inkscape:connector-curvature="0" /></clipPath><clipPath
       clipPathUnits="userSpaceOnUse"
       id="clipPath538"><path
         d="m 138.944,108.771 30.315,0 0,70.866 -30.315,0 0,-70.866 z"
         id="path540"
         inkscape:connector-curvature="0" /></clipPath><clipPath
       clipPathUnits="userSpaceOnUse"
       id="clipPath662"><path
         d="m 97.4,108.771 34.602,0 0,70.866 -34.602,0 0,-70.866 z"
         id="path664"
         inkscape:connector-curvature="0" /></clipPath><clipPath
       clipPathUnits="userSpaceOnUse"
       id="clipPath786"><path
         d="m 129.704,352.558 44.096,0 0,102.358 -44.096,0 0,-102.358 z"
         id="path788"
         inkscape:connector-curvature="0" /></clipPath><clipPath
       clipPathUnits="userSpaceOnUse"
       id="clipPath910"><path
         d="m 495.446,395.205 36.097,0 0,38.267 -36.097,0 0,-38.267 z"
         id="path912"
         inkscape:connector-curvature="0" /></clipPath><clipPath
       clipPathUnits="userSpaceOnUse"
       id="clipPath1038"><path
         d="m 53.225,206.857 53.462,0 0,89.961 -53.462,0 0,-89.961 z"
         id="path1040"
         inkscape:connector-curvature="0" /></clipPath><clipPath
       clipPathUnits="userSpaceOnUse"
       id="clipPath1162"><path
         d="m 445.223,378.4 36.43,0 0,76.516 -36.43,0 0,-76.516 z"
         id="path1164"
         inkscape:connector-curvature="0" /></clipPath><clipPath
       clipPathUnits="userSpaceOnUse"
       id="clipPath1380"><path
         d="m 0,841.89 595.276,0 L 595.276,0 0,0 0,841.89 z"
         id="path1382"
         inkscape:connector-curvature="0" /></clipPath><clipPath
       clipPathUnits="userSpaceOnUse"
       id="clipPath1404"><path
         d="m 0,841.89 595.276,0 L 595.276,0 0,0 0,841.89 z"
         id="path1406"
         inkscape:connector-curvature="0" /></clipPath><clipPath
       clipPathUnits="userSpaceOnUse"
       id="clipPath1412"><path
         d="m 45.354,736.448 30.315,0 0,70.866 -30.315,0 0,-70.866 z"
         id="path1414"
         inkscape:connector-curvature="0" /></clipPath></defs><sodipodi:namedview
     pagecolor="#ffffff"
     bordercolor="#666666"
     borderopacity="1"
     objecttolerance="10"
     gridtolerance="10"
     guidetolerance="10"
     inkscape:pageopacity="0"
     inkscape:pageshadow="2"
     inkscape:window-width="2179"
     inkscape:window-height="1364"
     id="namedview4"
     showgrid="false"
     inkscape:zoom="0.63429547"
     inkscape:cx="14.077597"
     inkscape:cy="121.759"
     inkscape:window-x="1171"
     inkscape:window-y="0"
     inkscape:window-maximized="0"
     inkscape:current-layer="g10"
     fit-margin-top="0"
     fit-margin-left="0"
     fit-margin-right="0"
     fit-margin-bottom="0" /><g
     id="g10"
     inkscape:groupmode="layer"
     inkscape:label="logo-etat-charte"
     transform="matrix(1.25,0,0,-1.25,-30.357311,905.38654)"><g
       id="g24"
       transform="translate(-20.512151,7.8035359)"
       style="fill:#000000;fill-opacity:1;stroke:none"><g
         id="g26"
         clip-path="url(#clipPath28)"
         style="fill:#000000;fill-opacity:1;stroke:none"><g
           id="g32"
           transform="translate(62.8109,594.9473)"
           style="fill:#000000;fill-opacity:1;stroke:none"><path
             d="m 0,0 c 0,-2.311 -1.19,-4.017 -3.266,-4.683 -0.811,-0.261 -1.86,-0.389 -3.211,-0.389 -1.349,0 -2.437,0.131 -3.238,0.389 -2.075,0.666 -3.265,2.372 -3.265,4.683 0,1.774 0.79,3.291 2.114,4.057 0.139,0.083 0.287,0.12 0.48,0.12 0.422,0 0.754,-0.33 0.754,-0.753 0,-0.304 -0.149,-0.558 -0.446,-0.756 C -10.958,2.042 -11.37,1.193 -11.37,0 c 0,-1.553 0.753,-2.61 2.175,-3.059 0.695,-0.231 1.482,-0.325 2.718,-0.325 1.218,0 1.996,0.094 2.688,0.324 1.426,0.45 2.177,1.507 2.177,3.06 0,1.194 -0.41,2.043 -1.293,2.671 -0.292,0.192 -0.444,0.447 -0.444,0.753 0,0.423 0.333,0.753 0.756,0.753 0.192,0 0.342,-0.037 0.481,-0.122 C -0.791,3.291 0,1.774 0,0"
             style="fill:#000000;fill-opacity:1;fill-rule:nonzero;stroke:none"
             id="path34"
             inkscape:connector-curvature="0" /></g><g
           id="g36"
           transform="translate(56.8322,605.2927)"
           style="fill:#000000;fill-opacity:1;stroke:none"><path
             d="m 0,0 c 0,-2.317 0.669,-3.307 2.235,-3.307 1.783,0 2.158,1.562 2.158,2.874 0,2.072 -0.984,3.359 -2.566,3.359 l -1.814,0 L 0,0 z m 5.979,-0.663 c 0,-2.616 -1.47,-4.306 -3.744,-4.306 -2.431,0 -3.769,1.692 -3.769,4.765 l 0,3.118 -0.88,0.012 c -2.132,0 -3.003,-0.877 -3.003,-3.027 0,-1.072 0.387,-2.104 0.748,-2.713 0.108,-0.164 0.172,-0.369 0.172,-0.558 0,-0.459 -0.32,-0.78 -0.779,-0.78 -0.246,0 -0.489,0.121 -0.668,0.331 -0.664,0.873 -1.057,2.291 -1.057,3.796 0,3.112 1.425,4.561 4.485,4.561 l 4.93,0 c 0.683,0 0.913,0.077 1.24,0.241 L 4.571,5.26 C 4.684,5.318 4.86,5.379 5.02,5.379 5.495,5.379 5.825,5.027 5.825,4.523 5.825,4.188 5.665,3.938 5.322,3.737 L 4.478,3.227 C 5.529,2.238 5.979,1.065 5.979,-0.663"
             style="fill:#000000;fill-opacity:1;fill-rule:nonzero;stroke:none"
             id="path38"
             inkscape:connector-curvature="0" /></g><g
           id="g40"
           transform="translate(62.6568,621.5936)"
           style="fill:#000000;fill-opacity:1;stroke:none"><path
             d="m 0,0 c 0,-0.512 -0.338,-0.831 -0.881,-0.831 l -6.821,0 c -2.364,0 -3.514,-0.997 -3.514,-3.053 0,-1.873 1.339,-3.18 3.258,-3.18 l 7.077,0 c 0.543,0 0.881,-0.318 0.881,-0.832 0,-0.511 -0.338,-0.83 -0.881,-0.83 l -10.909,0 c -0.545,0 -0.883,0.319 -0.883,0.83 0,0.514 0.338,0.832 0.883,0.832 l 0.435,0 c -0.964,0.763 -1.472,1.96 -1.472,3.486 0,2.76 1.792,4.409 4.792,4.409 l 7.154,0 C -0.338,0.831 0,0.512 0,0"
             style="fill:#000000;fill-opacity:1;fill-rule:nonzero;stroke:none"
             id="path42"
             inkscape:connector-curvature="0" /></g><g
           id="g44"
           transform="translate(62.6319,629.3602)"
           style="fill:#000000;fill-opacity:1;stroke:none"><path
             d="m 0,0 0,-0.333 c 0,-2.343 -0.956,-3.256 -3.41,-3.256 l -7.614,0 -0.013,-1.011 c 0,-0.488 -0.295,-0.804 -0.755,-0.804 -0.458,0 -0.754,0.316 -0.754,0.804 l 0,0.997 -3.127,0.014 c -0.546,0 -0.885,0.318 -0.885,0.829 0,0.513 0.339,0.831 0.885,0.831 l 3.115,0 0.012,1.954 c 0,0.489 0.296,0.806 0.754,0.806 0.46,0 0.755,-0.317 0.755,-0.806 l 0,-1.942 7.576,-0.012 c 1.47,0 1.85,0.397 1.85,1.929 0,0.512 0.324,0.855 0.806,0.855 C -0.323,0.855 0,0.512 0,0"
             style="fill:#000000;fill-opacity:1;fill-rule:nonzero;stroke:none"
             id="path46"
             inkscape:connector-curvature="0" /></g><g
           id="g48"
           transform="translate(51.4408,636.3592)"
           style="fill:#000000;fill-opacity:1;stroke:none"><path
             d="m 0,0 c 0,-1.499 0.794,-2.624 2.177,-3.085 0.702,-0.234 1.456,-0.324 2.691,-0.324 1.253,0 2.013,0.09 2.713,0.324 C 8.966,-2.624 9.758,-1.499 9.758,0 9.758,1.539 8.986,2.643 7.582,3.111 6.877,3.345 6.117,3.437 4.868,3.437 3.637,3.437 2.882,3.345 2.177,3.111 0.773,2.643 0,1.539 0,0 m 11.37,0 c 0,-2.292 -1.19,-3.999 -3.265,-4.681 -0.944,-0.296 -1.882,-0.416 -3.237,-0.416 -1.339,0 -2.269,0.12 -3.211,0.415 C -0.42,-4 -1.61,-2.293 -1.61,0 c 0,2.309 1.19,4.024 3.266,4.708 0.948,0.295 1.879,0.416 3.212,0.416 1.351,0 2.288,-0.121 3.235,-0.415 C 10.18,4.024 11.37,2.309 11.37,0"
             style="fill:#000000;fill-opacity:1;fill-rule:nonzero;stroke:none"
             id="path50"
             inkscape:connector-curvature="0" /></g><g
           id="g52"
           transform="translate(62.6568,652.5303)"
           style="fill:#000000;fill-opacity:1;stroke:none"><path
             d="m 0,0 c 0,-0.512 -0.338,-0.831 -0.881,-0.831 l -6.821,0 c -2.364,0 -3.514,-0.999 -3.514,-3.053 0,-1.872 1.339,-3.18 3.258,-3.18 l 7.077,0 c 0.543,0 0.881,-0.319 0.881,-0.832 0,-0.511 -0.338,-0.83 -0.881,-0.83 l -10.909,0 c -0.545,0 -0.883,0.319 -0.883,0.83 0,0.513 0.338,0.832 0.883,0.832 l 0.435,0 c -0.964,0.763 -1.472,1.96 -1.472,3.487 0,2.76 1.792,4.408 4.792,4.408 l 7.154,0 C -0.338,0.831 0,0.512 0,0"
             style="fill:#000000;fill-opacity:1;fill-rule:nonzero;stroke:none"
             id="path54"
             inkscape:connector-curvature="0" /></g><g
           id="g56"
           transform="translate(51.4408,665.0553)"
           style="fill:#000000;fill-opacity:1;stroke:none"><path
             d="m 0,0 c 0,-1.473 0.747,-2.533 2.102,-2.983 0.721,-0.234 1.496,-0.325 2.766,-0.325 1.303,0 2.059,0.088 2.791,0.325 1.355,0.45 2.099,1.51 2.099,2.983 0,1.518 -0.699,2.559 -2.022,3.009 C 7.096,3.204 6.104,3.308 4.868,3.308 3.665,3.308 2.654,3.201 2.022,3.008 0.701,2.559 0,1.518 0,0 m 11.37,-0.23 c 0,-2.12 -1.105,-3.655 -3.112,-4.325 -1.035,-0.317 -1.985,-0.441 -3.39,-0.441 -1.371,0 -2.345,0.128 -3.364,0.441 -2.009,0.67 -3.114,2.205 -3.114,4.325 0,1.647 0.488,2.809 1.488,3.538 l -5.638,0 c -0.545,0 -0.883,0.318 -0.883,0.831 0,0.512 0.338,0.83 0.883,0.83 l 16.095,0 c 0.544,0 0.881,-0.318 0.881,-0.83 0,-0.513 -0.337,-0.831 -0.881,-0.831 l -0.455,0 c 1.002,-0.729 1.49,-1.892 1.49,-3.538"
             style="fill:#000000;fill-opacity:1;fill-rule:nonzero;stroke:none"
             id="path58"
             inkscape:connector-curvature="0" /></g><g
           id="g60"
           transform="translate(51.3895,677.3666)"
           style="fill:#000000;fill-opacity:1;stroke:none"><path
             d="M 0,0 C 0,-1.549 0.782,-2.654 2.203,-3.11 2.687,-3.264 3.21,-3.332 3.896,-3.332 L 3.907,3.347 C 3.21,3.359 2.687,3.29 2.203,3.136 0.782,2.679 0,1.566 0,0 m 11.422,0.155 c 0,-2.422 -1.139,-4.077 -3.291,-4.785 -0.845,-0.28 -1.745,-0.39 -3.212,-0.39 -1.44,0 -2.34,0.11 -3.211,0.39 -2.077,0.674 -3.267,2.363 -3.267,4.63 0,2.285 1.19,3.982 3.266,4.657 0.799,0.265 1.74,0.39 2.956,0.39 0.46,0 0.78,-0.321 0.78,-0.78 l 0,-7.588 c 1.033,-0.011 1.518,0.046 2.089,0.236 1.49,0.497 2.278,1.644 2.278,3.315 0,1.33 -0.4,2.285 -1.337,3.196 -0.195,0.196 -0.298,0.407 -0.298,0.611 0,0.431 0.313,0.755 0.729,0.755 0.211,0 0.394,-0.063 0.548,-0.185 1.269,-1.004 1.97,-2.585 1.97,-4.452"
             style="fill:#000000;fill-opacity:1;fill-rule:nonzero;stroke:none"
             id="path62"
             inkscape:connector-curvature="0" /></g><g
           id="g64"
           transform="translate(101.8915,601.9579)"
           style="fill:#000000;fill-opacity:1;stroke:none"><path
             d="m 0,0 -30.141,-11.586 c -0.439,-0.148 -0.734,-0.221 -1.099,-0.221 -0.954,0 -1.907,0.66 -1.907,1.98 0,1.026 0.66,1.613 1.466,1.908 l 27.574,10.559 0,0.073 -27.574,10.341 c -0.806,0.292 -1.466,0.879 -1.466,1.906 0,1.32 0.953,1.98 1.907,1.98 0.365,0 0.66,-0.072 1.099,-0.22 L 0,5.134 C 1.833,4.474 2.42,3.814 2.42,2.566 2.42,1.32 1.833,0.659 0,0"
             style="fill:#000000;fill-opacity:1;fill-rule:nonzero;stroke:none"
             id="path66"
             inkscape:connector-curvature="0" /></g><g
           id="g68"
           transform="translate(93.2387,643.3616)"
           style="fill:#000000;fill-opacity:1;stroke:none"><path
             d="M 0,0 -5.207,0 C -5.5,0 -5.648,-0.146 -5.648,-0.439 l 0,-8.36 c 0,-6.968 2.127,-9.901 6.82,-9.901 4.328,0 6.6,3.007 6.6,8.653 C 7.772,-4.034 4.839,0 0,0 m 9.166,6.234 c 1.1,0 1.907,-0.807 1.907,-2.054 0,-0.807 -0.367,-1.393 -1.248,-1.906 l -2.786,-1.686 0,-0.148 c 2.861,-2.567 4.474,-5.647 4.474,-11.147 0,-6.746 -3.667,-11.953 -10.341,-11.953 -6.892,0 -10.413,4.84 -10.413,13.273 l 0,8.948 C -9.241,-0.146 -9.387,0 -9.68,0 l -2.494,0 c -5.794,0 -9.021,-2.2 -9.021,-9.092 0,-3.008 1.027,-6.014 2.201,-7.994 0.293,-0.441 0.439,-0.955 0.439,-1.394 0,-1.101 -0.733,-1.832 -1.834,-1.832 -0.585,0 -1.172,0.293 -1.612,0.806 -1.613,2.127 -2.934,5.865 -2.934,10.632 0,8.655 3.887,12.688 12.467,12.688 l 14.154,0 c 1.981,0 2.715,0.22 3.739,0.733 L 8.066,5.94 c 0.293,0.147 0.733,0.294 1.1,0.294"
             style="fill:#000000;fill-opacity:1;fill-rule:nonzero;stroke:none"
             id="path70"
             inkscape:connector-curvature="0" /></g><g
           id="g72"
           transform="translate(102.1855,678.3386)"
           style="fill:#000000;fill-opacity:1;stroke:none"><path
             d="m 0,0 -2.421,0 0,-0.073 c 3.154,-1.979 4.987,-5.279 4.987,-10.193 0,-7.702 -4.84,-12.1 -13.346,-12.1 l -20.534,0 c -1.393,0 -2.127,0.806 -2.127,1.979 0,1.174 0.734,1.981 2.127,1.981 l 19.579,0 c 6.968,0 10.487,2.933 10.487,9.019 C -1.248,-4.105 -4.987,0 -11,0 l -20.314,0 c -1.393,0 -2.127,0.807 -2.127,1.981 0,1.174 0.734,1.981 2.127,1.981 L 0,3.962 C 1.392,3.962 2.126,3.155 2.126,1.981 2.126,0.807 1.392,0 0,0"
             style="fill:#000000;fill-opacity:1;fill-rule:nonzero;stroke:none"
             id="path74"
             inkscape:connector-curvature="0" /></g><g
           id="g76"
           transform="translate(94.8516,711.6251)"
           style="fill:#000000;fill-opacity:1;stroke:none"><path
             d="m 0,0 c -1.906,0.586 -4.84,0.879 -8.36,0.879 -3.446,0 -6.381,-0.293 -8.287,-0.879 -4.107,-1.394 -6.087,-4.621 -6.087,-9.021 0,-4.473 2.347,-7.627 6.307,-8.947 2.274,-0.733 4.621,-0.953 8.067,-0.953 3.52,0 5.866,0.22 8.139,0.953 3.961,1.32 6.307,4.474 6.307,8.947 0,4.4 -1.979,7.627 -6.086,9.021 m 7.334,0.879 -2.567,0 0,-0.073 C 7.773,-0.88 9.9,-3.96 9.9,-9.68 c 0,-5.941 -3.154,-10.194 -8.653,-12.028 -2.86,-0.88 -5.574,-1.245 -9.607,-1.245 -3.96,0 -6.674,0.365 -9.534,1.245 -5.5,1.834 -8.654,6.087 -8.654,12.028 0,5.72 2.127,8.8 5.134,10.486 l 0,0.073 -17.453,0 c -1.395,0 -2.127,0.807 -2.127,1.981 0,1.173 0.732,1.979 2.127,1.979 l 46.201,0 C 8.726,4.839 9.46,4.033 9.46,2.86 9.46,1.686 8.726,0.879 7.334,0.879"
             style="fill:#000000;fill-opacity:1;fill-rule:nonzero;stroke:none"
             id="path78"
             inkscape:connector-curvature="0" /></g><g
           id="g80"
           transform="translate(102.8174,577.2656)"
           style="fill:#000000;fill-opacity:1;stroke:none"><path
             d="m 0,0 c -0.108,-4.89 -0.406,-9.36 -0.884,-13.283 -0.25,-1.98 -0.632,-4.011 -1.137,-6.046 l -46.649,0 c -0.508,2.058 -0.878,4.043 -1.128,6.049 -0.639,4.943 -0.865,9.95 -0.942,13.281 -0.055,2.351 -0.047,4.222 -0.034,5.252 l 50.798,0 C 0.038,4.222 0.048,2.35 0,0 m -3.664,-24.709 -2.601,3.58 3.764,0 c -0.342,-1.201 -0.734,-2.394 -1.163,-3.58 m -32.139,3.58 18.546,-25.526 c -0.592,-0.672 -1.204,-1.346 -1.832,-2.023 l -20.015,27.549 3.301,0 z m 4.691,0 16.379,-22.543 c -0.57,-0.702 -1.158,-1.406 -1.766,-2.111 l -17.913,24.654 3.3,0 z m 4.692,0 14.107,-19.417 c -0.543,-0.737 -1.107,-1.475 -1.691,-2.215 l -15.717,21.632 3.301,0 z m 4.691,0 11.712,-16.122 c -0.511,-0.778 -1.046,-1.557 -1.602,-2.337 l -13.411,18.459 3.301,0 z m 4.691,0 9.172,-12.624 c -0.475,-0.828 -0.974,-1.656 -1.497,-2.483 l -10.975,15.107 3.3,0 z m 4.691,0 6.454,-8.883 c -0.431,-0.894 -0.888,-1.781 -1.368,-2.659 l -8.386,11.542 3.3,0 z m 4.691,0 3.519,-4.843 c -0.376,-0.965 -0.78,-1.923 -1.212,-2.873 l -5.607,7.716 3.3,0 z m -14.095,-30.34 -22.044,30.34 3.301,0 20.622,-28.384 c -0.151,-0.161 -0.3,-0.32 -0.454,-0.48 -0.516,-0.528 -0.987,-1.02 -1.425,-1.476 m -2.09,-2.122 c -0.251,-0.238 -0.462,-0.422 -0.646,-0.57 l -23.503,32.349 c -0.068,0.229 -0.14,0.455 -0.204,0.683 l 3.009,0 22.642,-31.164 c -0.48,-0.495 -0.915,-0.938 -1.298,-1.298 m -5.5,2.516 c -0.322,0.339 -0.661,0.698 -1.022,1.076 -5.626,5.844 -9.892,11.481 -13.043,17.233 -1.32,2.408 -2.454,4.885 -3.396,7.405 l 21.241,-29.236 c -0.254,0.12 -0.666,0.396 -1.323,1.013 -0.677,0.628 -1.502,1.5 -2.457,2.509 M 1.808,6.177 C 1.795,6.664 1.396,7.053 0.908,7.053 l -52.567,0 c -0.487,0 -0.886,-0.388 -0.899,-0.876 -10e-4,-0.024 -0.067,-2.549 0.019,-6.218 0.078,-3.373 0.307,-8.449 0.956,-13.465 0.24,-1.933 0.596,-3.85 1.067,-5.823 l -0.018,0 0.292,-1.123 c 0,-10e-4 0,-0.002 0,-0.003 0,0 10e-4,0 10e-4,-0.001 1.171,-4.516 2.94,-8.948 5.256,-13.175 3.229,-5.893 7.587,-11.655 13.322,-17.614 0.357,-0.373 0.694,-0.729 1.015,-1.068 0.976,-1.032 1.82,-1.923 2.536,-2.587 1.124,-1.056 1.934,-1.528 2.709,-1.579 l 0.059,-0.005 0.059,0.005 c 0.775,0.051 1.552,0.51 2.68,1.58 0.599,0.563 1.288,1.282 2.085,2.114 0.453,0.471 0.944,0.984 1.488,1.54 5.733,5.994 10.083,11.755 13.298,17.613 2.327,4.233 4.105,8.666 5.283,13.176 l 0.294,1.127 -0.018,0 c 0.47,1.959 0.836,3.912 1.077,5.825 0.486,3.986 0.788,8.516 0.898,13.466 0.074,3.667 0.009,6.19 0.008,6.215"
             style="fill:#000000;fill-opacity:1;fill-rule:nonzero;stroke:none"
             id="path82"
             inkscape:connector-curvature="0" /></g><g
           id="g84"
           transform="translate(61.4054,578.4427)"
           style="fill:#000000;fill-opacity:1;stroke:none"><path
             d="M 0,0 C 0,0.247 0.148,0.396 0.363,0.396 0.578,0.396 0.734,0.247 0.734,0 l 0,-4.521 c 0,-0.033 0.017,-0.05 0.05,-0.05 l 2.434,0 c 0.223,0 0.363,-0.149 0.363,-0.338 0,-0.198 -0.14,-0.347 -0.363,-0.347 l -2.863,0 C 0.132,-5.256 0,-5.116 0,-4.893 L 0,0 z"
             style="fill:#000000;fill-opacity:1;fill-rule:nonzero;stroke:none"
             id="path86"
             inkscape:connector-curvature="0" /></g><g
           id="g88"
           transform="translate(66.3388,578.4427)"
           style="fill:#000000;fill-opacity:1;stroke:none"><path
             d="M 0,0 C 0,0.247 0.148,0.396 0.371,0.396 0.586,0.396 0.734,0.247 0.734,0 l 0,-4.901 C 0.734,-5.148 0.586,-5.297 0.371,-5.297 0.148,-5.297 0,-5.148 0,-4.901 L 0,0 z"
             style="fill:#000000;fill-opacity:1;fill-rule:nonzero;stroke:none"
             id="path90"
             inkscape:connector-curvature="0" /></g><g
           id="g92"
           transform="translate(69.7378,573.8553)"
           style="fill:#000000;fill-opacity:1;stroke:none"><path
             d="M 0,0 1.312,0 C 1.98,0 2.343,0.363 2.343,0.924 2.343,1.477 1.98,1.848 1.312,1.848 L 0,1.848 c -0.033,0 -0.049,-0.016 -0.049,-0.049 l 0,-1.75 C -0.049,0.017 -0.033,0 0,0 m 1.271,2.517 c 0.619,0 0.982,0.354 0.982,0.875 0,0.535 -0.363,0.882 -0.982,0.882 L 0,4.274 c -0.033,0 -0.049,-0.017 -0.049,-0.05 l 0,-1.658 C -0.049,2.533 -0.033,2.517 0,2.517 l 1.271,0 z m -2.055,2.095 c 0,0.198 0.124,0.33 0.33,0.33 l 1.741,0 c 1.122,0 1.692,-0.577 1.692,-1.469 0,-0.651 -0.297,-1.056 -0.759,-1.229 l 0,-0.016 C 2.624,2.121 3.078,1.667 3.078,0.932 c 0,-1.056 -0.677,-1.601 -1.815,-1.601 l -1.717,0 c -0.206,0 -0.33,0.125 -0.33,0.33 l 0,4.951 z"
             style="fill:#000000;fill-opacity:1;fill-rule:nonzero;stroke:none"
             id="path94"
             inkscape:connector-curvature="0" /></g><g
           id="g96"
           transform="translate(74.4319,578.4675)"
           style="fill:#000000;fill-opacity:1;stroke:none"><path
             d="m 0,0 c 0,0.198 0.124,0.33 0.33,0.33 l 2.888,0 c 0.223,0 0.363,-0.148 0.363,-0.338 0,-0.198 -0.14,-0.347 -0.363,-0.347 l -2.434,0 c -0.033,0 -0.05,-0.016 -0.05,-0.049 l 0,-1.65 c 0,-0.033 0.017,-0.05 0.05,-0.05 l 2.03,0 c 0.222,0 0.363,-0.148 0.363,-0.338 0,-0.198 -0.141,-0.347 -0.363,-0.347 l -2.03,0 c -0.033,0 -0.05,-0.016 -0.05,-0.049 l 0,-1.708 c 0,-0.033 0.017,-0.05 0.05,-0.05 l 2.434,0 c 0.223,0 0.363,-0.148 0.363,-0.338 0,-0.198 -0.14,-0.347 -0.363,-0.347 l -2.888,0 C 0.124,-5.281 0,-5.149 0,-4.951 L 0,0 z"
             style="fill:#000000;fill-opacity:1;fill-rule:nonzero;stroke:none"
             id="path98"
             inkscape:connector-curvature="0" /></g><g
           id="g100"
           transform="translate(82.7069,577.1805)"
           style="fill:#000000;fill-opacity:1;stroke:none"><path
             d="m 0,0 c 0,0.586 -0.388,0.932 -1.04,0.932 l -1.311,0 c -0.033,0 -0.05,-0.016 -0.05,-0.049 l 0,-1.766 c 0,-0.033 0.017,-0.049 0.05,-0.049 l 1.311,0 C -0.388,-0.932 0,-0.586 0,0 m -3.135,-3.639 0,4.926 c 0,0.198 0.123,0.33 0.33,0.33 l 1.757,0 c 1.09,0 1.774,-0.635 1.774,-1.617 0,-0.751 -0.396,-1.295 -1.064,-1.51 l 1.007,-1.98 c 0.032,-0.067 0.049,-0.124 0.049,-0.198 0,-0.182 -0.132,-0.347 -0.355,-0.347 -0.148,0 -0.264,0.074 -0.354,0.231 l -1.106,2.187 -1.254,0 c -0.033,0 -0.05,-0.017 -0.05,-0.05 l 0,-1.972 c 0,-0.247 -0.148,-0.396 -0.363,-0.396 -0.223,0 -0.371,0.149 -0.371,0.396"
             style="fill:#000000;fill-opacity:1;fill-rule:nonzero;stroke:none"
             id="path102"
             inkscape:connector-curvature="0" /></g><g
           id="g104"
           transform="translate(88.3499,578.7975)"
           style="fill:#000000;fill-opacity:1;stroke:none"><path
             d="m 0,0 c 0.223,0 0.363,-0.148 0.363,-0.346 0,-0.19 -0.14,-0.339 -0.363,-0.339 l -1.295,0 c -0.033,0 -0.05,-0.016 -0.05,-0.049 l 0,-4.522 c 0,-0.247 -0.148,-0.396 -0.363,-0.396 -0.222,0 -0.371,0.149 -0.371,0.396 l 0,4.522 c 0,0.033 -0.016,0.049 -0.049,0.049 l -1.296,0 c -0.222,0 -0.363,0.149 -0.363,0.339 0,0.198 0.141,0.346 0.363,0.346 L 0,0 z"
             style="fill:#000000;fill-opacity:1;fill-rule:nonzero;stroke:none"
             id="path106"
             inkscape:connector-curvature="0" /></g><g
           id="g108"
           transform="translate(92.1201,580.5304)"
           style="fill:#000000;fill-opacity:1;stroke:none"><path
             d="m 0,0 c 0.057,0.066 0.124,0.108 0.223,0.108 0.157,0 0.281,-0.116 0.281,-0.273 0,-0.082 -0.033,-0.157 -0.083,-0.215 l -0.569,-0.627 c -0.075,-0.082 -0.149,-0.123 -0.248,-0.123 -0.141,0 -0.264,0.115 -0.264,0.264 0,0.082 0.033,0.156 0.09,0.223 L 0,0 z m -2.079,-2.063 c 0,0.198 0.123,0.33 0.33,0.33 l 2.887,0 c 0.223,0 0.364,-0.148 0.364,-0.338 0,-0.198 -0.141,-0.347 -0.364,-0.347 l -2.433,0 c -0.033,0 -0.05,-0.016 -0.05,-0.049 l 0,-1.65 c 0,-0.033 0.017,-0.05 0.05,-0.05 l 2.029,0 c 0.223,0 0.364,-0.148 0.364,-0.338 0,-0.198 -0.141,-0.347 -0.364,-0.347 l -2.029,0 c -0.033,0 -0.05,-0.016 -0.05,-0.049 l 0,-1.708 c 0,-0.033 0.017,-0.05 0.05,-0.05 l 2.433,0 c 0.223,0 0.364,-0.148 0.364,-0.338 0,-0.198 -0.141,-0.347 -0.364,-0.347 l -2.887,0 c -0.207,0 -0.33,0.132 -0.33,0.33 l 0,4.951 z"
             style="fill:#000000;fill-opacity:1;fill-rule:nonzero;stroke:none"
             id="path110"
             inkscape:connector-curvature="0" /></g><g
           id="g112"
           transform="translate(74.4313,571.3534)"
           style="fill:#000000;fill-opacity:1;stroke:none"><path
             d="m 0,0 c 0,0.135 0.084,0.225 0.225,0.225 l 2.011,0 c 0.152,0 0.248,-0.123 0.248,-0.252 0,-0.135 -0.096,-0.258 -0.248,-0.258 l -1.659,0 c -0.023,0 -0.034,-0.011 -0.034,-0.033 l 0,-0.976 c 0,-0.023 0.011,-0.034 0.034,-0.034 l 1.383,0 c 0.153,0 0.248,-0.123 0.248,-0.252 0,-0.135 -0.095,-0.258 -0.248,-0.258 l -1.383,0 c -0.023,0 -0.034,-0.01 -0.034,-0.033 l 0,-1.015 c 0,-0.023 0.011,-0.034 0.034,-0.034 l 1.659,0 c 0.152,0 0.248,-0.123 0.248,-0.252 0,-0.136 -0.096,-0.258 -0.248,-0.258 l -2.011,0 C 0.084,-3.43 0,-3.339 0,-3.205 L 0,0 z"
             style="fill:#000000;fill-opacity:1;fill-rule:nonzero;stroke:none"
             id="path114"
             inkscape:connector-curvature="0" /></g><g
           id="g116"
           transform="translate(80.4017,571.5784)"
           style="fill:#000000;fill-opacity:1;stroke:none"><path
             d="M 0,0 C 0.152,0 0.269,-0.123 0.269,-0.258 0.269,-0.387 0.152,-0.51 0,-0.51 l -0.883,0 c -0.023,0 -0.034,-0.011 -0.034,-0.033 l 0,-2.849 c 0,-0.168 -0.122,-0.291 -0.269,-0.291 -0.151,0 -0.274,0.123 -0.274,0.291 l 0,2.849 c 0,0.022 -0.011,0.033 -0.033,0.033 l -0.884,0 c -0.152,0 -0.269,0.123 -0.269,0.252 0,0.135 0.117,0.258 0.269,0.258 L 0,0 z"
             style="fill:#000000;fill-opacity:1;fill-rule:nonzero;stroke:none"
             id="path118"
             inkscape:connector-curvature="0" /></g><g
           id="g120"
           transform="translate(67.4446,564.663)"
           style="fill:#000000;fill-opacity:1;stroke:none"><path
             d="m 0,0 c 0,0.61 -0.404,0.99 -1.097,0.99 l -1.255,0 c -0.033,0 -0.049,-0.017 -0.049,-0.05 l 0,-1.881 c 0,-0.033 0.016,-0.049 0.049,-0.049 l 1.255,0 C -0.404,-0.99 0,-0.611 0,0 m -3.135,1.345 c 0,0.198 0.123,0.33 0.33,0.33 l 1.732,0 c 1.122,0 1.799,-0.677 1.799,-1.675 0,-0.999 -0.677,-1.675 -1.799,-1.675 l -1.279,0 c -0.033,0 -0.049,-0.017 -0.049,-0.05 l 0,-1.856 c 0,-0.248 -0.149,-0.396 -0.363,-0.396 -0.223,0 -0.371,0.148 -0.371,0.396 l 0,4.926 z"
             style="fill:#000000;fill-opacity:1;fill-rule:nonzero;stroke:none"
             id="path122"
             inkscape:connector-curvature="0" /></g><g
           id="g124"
           transform="translate(71.8748,562.7074)"
           style="fill:#000000;fill-opacity:1;stroke:none"><path
             d="m 0,0 -0.891,2.55 -0.025,0 L -1.824,0 0,0 z m -3.111,-1.518 1.725,4.777 c 0.091,0.264 0.231,0.413 0.478,0.413 0.248,0 0.405,-0.149 0.495,-0.413 l 1.7,-4.777 c 0.017,-0.05 0.033,-0.108 0.033,-0.165 0,-0.207 -0.157,-0.339 -0.346,-0.339 -0.165,0 -0.297,0.091 -0.355,0.264 l -0.38,1.081 -2.302,0 -0.379,-1.081 c -0.058,-0.173 -0.19,-0.264 -0.355,-0.264 -0.19,0 -0.347,0.132 -0.347,0.339 0,0.057 0.017,0.115 0.033,0.165"
             style="fill:#000000;fill-opacity:1;fill-rule:nonzero;stroke:none"
             id="path126"
             inkscape:connector-curvature="0" /></g><g
           id="g128"
           transform="translate(77.2457,566.3378)"
           style="fill:#000000;fill-opacity:1;stroke:none"><path
             d="M 0,0 C 0.223,0 0.363,-0.149 0.363,-0.346 0.363,-0.537 0.223,-0.685 0,-0.685 l -1.295,0 c -0.033,0 -0.05,-0.016 -0.05,-0.049 l 0,-4.522 c 0,-0.248 -0.148,-0.396 -0.363,-0.396 -0.223,0 -0.371,0.148 -0.371,0.396 l 0,4.522 c 0,0.033 -0.016,0.049 -0.049,0.049 l -1.296,0 c -0.223,0 -0.363,0.148 -0.363,0.339 0,0.197 0.14,0.346 0.363,0.346 L 0,0 z"
             style="fill:#000000;fill-opacity:1;fill-rule:nonzero;stroke:none"
             id="path130"
             inkscape:connector-curvature="0" /></g><g
           id="g132"
           transform="translate(82.0716,564.7203)"
           style="fill:#000000;fill-opacity:1;stroke:none"><path
             d="m 0,0 c 0,0.586 -0.387,0.933 -1.039,0.933 l -1.312,0 c -0.033,0 -0.05,-0.017 -0.05,-0.05 l 0,-1.766 c 0,-0.033 0.017,-0.049 0.05,-0.049 l 1.312,0 C -0.387,-0.932 0,-0.585 0,0 m -3.135,-3.639 0,4.926 c 0,0.198 0.123,0.33 0.33,0.33 l 1.757,0 c 1.089,0 1.774,-0.635 1.774,-1.617 0,-0.751 -0.396,-1.295 -1.064,-1.51 l 1.007,-1.98 c 0.033,-0.066 0.049,-0.124 0.049,-0.198 0,-0.182 -0.132,-0.347 -0.355,-0.347 -0.148,0 -0.264,0.075 -0.355,0.231 l -1.105,2.187 -1.254,0 c -0.033,0 -0.05,-0.016 -0.05,-0.049 l 0,-1.973 c 0,-0.247 -0.149,-0.396 -0.363,-0.396 -0.223,0 -0.371,0.149 -0.371,0.396"
             style="fill:#000000;fill-opacity:1;fill-rule:nonzero;stroke:none"
             id="path134"
             inkscape:connector-curvature="0" /></g><g
           id="g136"
           transform="translate(84.5215,565.9826)"
           style="fill:#000000;fill-opacity:1;stroke:none"><path
             d="M 0,0 C 0,0.248 0.149,0.396 0.371,0.396 0.586,0.396 0.735,0.248 0.735,0 l 0,-4.901 C 0.735,-5.148 0.586,-5.297 0.371,-5.297 0.149,-5.297 0,-5.148 0,-4.901 L 0,0 z"
             style="fill:#000000;fill-opacity:1;fill-rule:nonzero;stroke:none"
             id="path138"
             inkscape:connector-curvature="0" /></g><g
           id="g140"
           transform="translate(87.1367,566.0078)"
           style="fill:#000000;fill-opacity:1;stroke:none"><path
             d="m 0,0 c 0,0.198 0.124,0.33 0.33,0.33 l 2.888,0 c 0.223,0 0.363,-0.149 0.363,-0.338 0,-0.199 -0.14,-0.347 -0.363,-0.347 l -2.434,0 c -0.033,0 -0.05,-0.016 -0.05,-0.049 l 0,-1.651 c 0,-0.033 0.017,-0.049 0.05,-0.049 l 2.03,0 c 0.222,0 0.363,-0.149 0.363,-0.338 0,-0.198 -0.141,-0.347 -0.363,-0.347 l -2.03,0 c -0.033,0 -0.05,-0.016 -0.05,-0.049 l 0,-1.708 c 0,-0.034 0.017,-0.05 0.05,-0.05 l 2.434,0 c 0.223,0 0.363,-0.149 0.363,-0.338 0,-0.198 -0.14,-0.347 -0.363,-0.347 l -2.888,0 C 0.124,-5.281 0,-5.149 0,-4.951 L 0,0 z"
             style="fill:#000000;fill-opacity:1;fill-rule:nonzero;stroke:none"
             id="path142"
             inkscape:connector-curvature="0" /></g><g
           id="g144"
           transform="translate(160.2111,520.7877)"
           style="fill:#000000;fill-opacity:1;stroke:none"><path
             d="m 0,0 c -0.497,0 -0.9,0.403 -0.9,0.9 l 0,193.918 c 0,0.498 0.403,0.9 0.9,0.9 0.497,0 0.9,-0.402 0.9,-0.9 L 0.9,0.9 C 0.9,0.403 0.497,0 0,0"
             style="fill:#000000;fill-opacity:1;fill-rule:nonzero;stroke:none"
             id="path146"
             inkscape:connector-curvature="0" /></g></g></g></g></svg>