<svg xmlns="http://www.w3.org/2000/svg" width="100" height="100" viewBox="75 100 500 500"><path d="M233.05 582.359h3.671l7.568-28.684h-3.457l-5.837 25.021h-.105l-6.386-25.037h-3.457l8.003 28.7z"/><path fill-rule="evenodd" clip-rule="evenodd" d="M250.888 582.359h3.239v-28.684h-3.239v28.684z"/><path d="M265.084 582.359h3.243v-38.58h-3.243v38.58zM279.288 582.359h3.239v-38.58h-3.239v38.58z"/><path fill-rule="evenodd" clip-rule="evenodd" d="M307.703 572.848c-.541 5.03-2.65 7.463-6.055 7.463-3.19 0-6.107-2.538-6.111-10.811v-1.352h15.683l-.004-1.187c0-9.571-2.867-13.948-9.245-13.948-6.321 0-9.891 5.022-9.891 14.97.004 10.817 3.569 15.029 9.621 15.029 5.404 0 8.761-4.054 9.245-10.165h-3.243v.001zm-12.166-7.403c.112-7.139 2.113-9.736 6.111-9.736 4.005 0 6.002 2.598 6.11 9.736h-12.221zM346.85 582.367h2.92l-.004-38.588h-3.239v14.204h-.112c-.702-3.018-3.135-4.97-6.7-4.97-6.329 0-9.192 5.082-9.192 14.97.003 9.947 2.863 15.029 9.192 15.029 3.408 0 6.159-2.109 7.026-5.397h.109v4.752zm-12.869-14.384c0-10.593 3.026-12.274 6.269-12.274 3.3 0 6.276 1.682 6.276 12.274 0 10.652-2.977 12.327-6.276 12.327-3.242.001-6.269-1.674-6.269-12.327zM371.342 582.367h3.239v-28.692h-3.239v28.692z"/><path d="M386.586 582.367h3.242v-19.294c-.003-4.437 2.598-7.357 5.838-7.357 2.92 0 4.485 1.779 4.485 5.195l.004 21.456h3.239v-19.294c0-4.437 2.594-7.357 5.844-7.357 2.913 0 4.486 1.779 4.486 5.195v21.456h3.243V560.43c-.004-5.149-2.65-7.417-6.655-7.417-3.671 0-5.995 1.847-7.29 5.022h-.112c-.432-2.92-2.541-5.022-5.998-5.022-3.194 0-5.785 1.464-7.301 4.647h-.105v-3.986h-2.92v28.693z"/><path fill-rule="evenodd" clip-rule="evenodd" d="M431.396 562.21c0-4.174 1.674-6.494 5.511-6.494 2.92 0 4.974 1.307 4.974 4.978 0 3.349-.484 3.882-2.752 4.534l-6.111 1.734c-4.054 1.134-5.784 4.167-5.784 7.95 0 4.97 2.275 8.108 7.301 8.108 3.188 0 6.104-1.089 7.406-4.865h.105v.969c0 2.973 1.621 3.573 4.166 3.573.428 0 .916-.112 1.509-.33v-2.38h-.919c-1.134 0-1.679-.751-1.679-2.372v-16.974c0-4.543-2.154-7.628-8.104-7.628-6.059 0-8.87 3.296-8.87 9.196h3.247v.001zm10.485 9.992c0 5.143-2.695 8.108-6.652 8.108-2.808 0-4.534-2.268-4.534-5.623 0-3.401 1.675-5.075 4.917-5.938l2.699-.713c1.303-.315 3.139-.909 3.465-1.885h.105v6.051zM472.116 558.096h-.109c-1.028-3.235-3.573-5.074-6.704-5.074-6.324-.008-9.188 5.074-9.188 14.962 0 11.471 4.43 14.384 8.862 14.384 2.977 0 5.68-1.629 6.704-5.128h.108v4.527c.004 5.09-2.105 7.845-6.055 7.845-2.859 0-5.404-1.621-5.404-4.324h-3.244c.053 4.106 2.97 7.027 8.544 7.027 6.486 0 9.402-4.047 9.402-12.004v-26.636h-2.916v4.421zm-12.541 9.572c0-9.144 2.267-11.952 6.107-11.952 3.84 0 6.106 2.809 6.106 11.952 0 9.188-2.267 12.004-6.106 12.004-3.84 0-6.107-2.816-6.107-12.004zM500.344 572.855c-.541 5.022-2.65 7.455-6.055 7.455-3.19 0-6.111-2.53-6.111-10.804v-1.351h15.679l-.003-1.194c0-9.571-2.86-13.94-9.246-13.94-6.32 0-9.887 5.015-9.887 14.962 0 10.825 3.566 15.037 9.621 15.037 5.401 0 8.757-4.055 9.241-10.165h-3.239zm-12.166-7.402c.109-7.14 2.105-9.737 6.111-9.737 3.994 0 5.994 2.598 6.107 9.737h-12.218z"/><path d="M524.029 569.89c2.86 1.134 3.889 2.748 3.889 5.285.007 3.198-2.211 5.136-5.672 5.136-3.683 0-5.518-2.155-5.518-6.366v-.766h-3.24v.915c0 6.494 2.921 8.927 8.811 8.927 6.051 0 8.862-3.619 8.862-8.543 0-3.139-1.457-5.841-5.346-7.29l-4.703-1.787c-3.247-1.261-3.896-2.808-3.896-4.812 0-2.868 1.457-4.873 5.244-4.873 2.973 0 4.699 1.577 4.699 5.301v.811h3.243v-.811c0-5.248-2.484-7.995-7.89-7.995-4.861 0-8.544 2.372-8.544 8.266 0 2.853 1.465 5.247 5.519 6.809l4.542 1.793zM358.621 543.915l.004 15.915h3.239s0-15.915.169-15.915h-3.412z"/><g><path fill="none" d="M298.251 339.831c-41.63 0-70.773 30.425-70.773 70.443 0 38.752 27.861 71.087 73.33 71.087 38.752 0 53.477-26.578 60.84-40.663l-8.005-3.845c-8.004 12.811-21.455 34.577-48.672 34.577-32.021 0-32.981-32.021-33.299-44.18-.323-8.649 0-16.977 0-25.298h91.581c-2.245-14.413-4.485-28.499-17.292-42.268-12.169-13.123-29.781-19.853-47.71-19.853zm22.73 52.829h-48.672l.321-17.293c1.278-12.794 3.204-28.182 25.621-28.182 20.812 0 21.771 15.709 22.73 26.907v18.568zM366.397 229.481c-2.242-14.422-4.491-28.514-17.297-42.276-12.165-13.125-29.779-19.848-47.71-19.848-41.626 0-70.77 30.409-70.77 70.436 0 38.752 27.861 71.087 73.329 71.087 38.749 0 53.476-26.572 60.843-40.663l-8.005-3.854c-8.01 12.811-21.452 34.593-48.673 34.593-32.017 0-32.981-32.014-33.302-44.187-.32-8.649 0-16.977 0-25.289h91.585zM275.771 202.9c1.282-12.809 3.205-28.189 25.619-28.189 20.816 0 21.779 15.695 22.73 26.901v18.582h-48.667l.318-17.294z"/><path fill="#5284C4" d="M487.506 367.039l-57.052 140.64c-5.862 14.557-11.878 28.077-21.43 35.273H511.77V351.995h-4.094c-11.843.323-15.688 3.201-20.17 15.044zM298.251 347.185c-22.417 0-24.343 15.388-25.621 28.182l-.321 17.293h48.672v-18.568c-.96-11.198-1.918-26.907-22.73-26.907z"/><path fill="#5284C4" d="M76.539 107.715v63.48h77.59v8.326H133l37.144 82.939 26.897-67.251c2.242-6.079 3.524-8.642 3.524-10.568 0-5.441-5.764-5.12-8.324-5.12h-15.37v-8.326h57.32v8.326h-8.651c-11.206 0-11.523 1.275-21.452 22.413L160.22 310.486h-8.646L91.05 179.522H76.539l-.003 164.154h78.13v8.319h-21.133l37.144 82.932 26.9-67.243c2.242-6.079 3.521-8.642 3.521-10.568 0-5.441-5.761-5.12-8.321-5.12h-15.374v-8.319h57.323v8.319h-8.651c-11.206 0-11.523 1.291-21.456 22.413l-43.867 108.558h-8.644L91.583 351.995H76.536l.003 190.957h300.93c-4.243-3.627-6.893-8.814-6.893-14.772 0-8.321 5.759-18.89 17.929-18.89 7.363 0 12.169 3.839 14.726 7.677.966 1.61 1.604 3.522 2.885 5.127.961 1.281 2.563 2.563 3.842 2.563 3.204 0 5.446-4.484 7.69-9.603l.638-1.598c4.531-12.299 13.177-33.691 13.177-33.691l-58.597-127.771h-16.329v-8.319h78.457v8.319h-16.652l33.302 78.135 22.731-55.722c1.281-3.194 5.764-14.078 5.764-16.97 0-5.765-8.646-5.443-11.205-5.443h-9.928v-8.319h52.765v-235.96H76.539zm286.713 294.238h-91.581c0 8.321-.323 16.648 0 25.298.318 12.159 1.278 44.18 33.299 44.18 27.217 0 40.668-21.767 48.672-34.577l8.005 3.845c-7.363 14.085-22.088 40.663-60.84 40.663-45.469 0-73.33-32.335-73.33-71.087 0-40.018 29.143-70.443 70.773-70.443 17.929 0 35.541 6.73 47.709 19.854 12.808 13.769 15.048 27.854 17.293 42.267zm-88.439-147.182c.321 12.173 1.285 44.187 33.302 44.187 27.221 0 40.663-21.782 48.673-34.593l8.005 3.854c-7.367 14.09-22.094 40.663-60.843 40.663-45.468 0-73.329-32.335-73.329-71.087 0-40.027 29.143-70.436 70.77-70.436 17.931 0 35.545 6.723 47.71 19.848 12.806 13.762 15.055 27.854 17.297 42.276h-91.584c-.001 8.31-.321 16.639-.001 25.288z"/><path fill="#5284C4" d="M324.121 201.612c-.951-11.206-1.914-26.901-22.73-26.901-22.415 0-24.337 15.381-25.619 28.189l-.318 17.293h48.667v-18.581z"/><path fill="none" d="M374.908 540.33c5.014 5.633 9.095 7.104 15.715 7.88 11.486 1.351 19.229-5.909 19.229-5.909M76.539 168.107v14.71M76.536 334.407v25.586M511.77 335.689v21.746"/></g></svg>
