<?xml version="1.0" encoding="UTF-8"?>
<!DOCTYPE svg PUBLIC "-//W3C//DTD SVG 1.1//EN" "http://www.w3.org/Graphics/SVG/1.1/DTD/svg11.dtd">
<!-- Creator: CorelDRAW X6 -->
<svg xmlns="http://www.w3.org/2000/svg" xml:space="preserve" width="5.22222in" height="5.45833in" version="1.1" style="shape-rendering:geometricPrecision; text-rendering:geometricPrecision; image-rendering:optimizeQuality; fill-rule:evenodd; clip-rule:evenodd"
viewBox="0 0 5222 5458"
 xmlns:xlink="http://www.w3.org/1999/xlink">
 <defs>
  <style type="text/css">
   <![CDATA[
    .fil0 {fill:#373435}
    .fil1 {fill:#5966C4;fill-rule:nonzero}
   ]]>
  </style>
 </defs>
 <g id="Layer_x0020_1">
  <metadata id="CorelCorpID_0Corel-Layer"/>
  <polygon class="fil0" points="1866,5346 1907,5346 1993,5022 1954,5022 1888,5305 1887,5305 1815,5022 1776,5022 "/>
  <polygon class="fil0" points="2067,5346 2104,5346 2104,5022 2067,5022 "/>
  <polygon class="fil0" points="2227,5346 2264,5346 2264,4911 2227,4911 "/>
  <polygon class="fil0" points="2388,5346 2424,5346 2424,4911 2388,4911 "/>
  <path class="fil0" d="M2708 5239c-6,57 -30,84 -68,84 -36,0 -69,-29 -69,-122l0 -15 177 0 0 -13c0,-108 -32,-157 -104,-157 -71,0 -112,57 -112,169 0,122 40,170 109,170 61,0 99,-46 104,-115l-37 0zm-137 -84c1,-80 24,-110 69,-110 45,0 68,29 69,110l-138 0z"/>
  <path class="fil0" d="M3150 5346l33 0 0 -435 -37 0 0 160 -1 0c-8,-34 -35,-56 -76,-56 -71,0 -104,57 -104,169 0,112 32,170 104,170 38,0 70,-24 79,-61l1 0 0 54zm-145 -162c0,-120 34,-138 71,-138 37,0 71,19 71,138 0,120 -34,139 -71,139 -37,0 -71,-19 -71,-139z"/>
  <polygon class="fil0" points="3426,5346 3463,5346 3463,5022 3426,5022 "/>
  <path class="fil0" d="M3598 5346l37 0 0 -218c0,-50 29,-83 66,-83 33,0 51,20 51,59l0 242 37 0 0 -218c0,-50 29,-83 66,-83 33,0 51,20 51,59l0 242 37 0 0 -248c0,-58 -30,-84 -75,-84 -41,0 -68,21 -82,57l-1 0c-5,-33 -29,-57 -68,-57 -36,0 -65,16 -82,52l-1 0 0 -45 -33 0 0 324z"/>
  <path class="fil0" d="M4104 5119c0,-47 19,-73 62,-73 33,0 56,15 56,56 0,38 -5,44 -31,51l-69 20c-46,13 -65,47 -65,90 0,56 26,91 82,91 36,0 69,-12 84,-55l1 0 0 11c0,34 18,40 47,40 5,0 10,-1 17,-4l0 -27 -10 0c-13,0 -19,-9 -19,-27l0 -191c0,-51 -24,-86 -91,-86 -68,0 -100,37 -100,104l37 0zm118 113c0,58 -30,91 -75,91 -32,0 -51,-26 -51,-63 0,-38 19,-57 55,-67l30 -8c15,-4 35,-10 39,-21l1 0 0 68z"/>
  <path class="fil0" d="M4563 5072l-1 0c-12,-37 -40,-57 -76,-57 -71,0 -104,57 -104,169 0,129 50,162 100,162 34,0 64,-18 76,-58l1 0 0 51c0,57 -24,88 -68,88 -32,0 -61,-18 -61,-49l-37 0c1,46 34,79 96,79 73,0 106,-46 106,-135l0 -301 -33 0 0 50zm-141 108c0,-103 26,-135 69,-135 43,0 69,32 69,135 0,104 -26,135 -69,135 -43,0 -69,-32 -69,-135z"/>
  <path class="fil0" d="M4881 5239c-6,57 -30,84 -68,84 -36,0 -69,-29 -69,-122l0 -15 177 0 0 -13c0,-108 -32,-157 -104,-157 -71,0 -112,57 -112,169 0,122 40,170 109,170 61,0 99,-46 104,-115l-37 0zm-137 -84c1,-80 24,-110 69,-110 45,0 68,29 69,110l-138 0z"/>
  <path class="fil0" d="M5149 5205c32,13 44,31 44,60 0,36 -25,58 -64,58 -41,0 -62,-24 -62,-72l0 -9 -37 0 0 10c0,73 33,101 99,101 67,0 99,-39 100,-93l0 -6c-1,-34 -18,-63 -60,-79l-53 -20c-37,-14 -44,-32 -44,-54 0,-32 16,-55 59,-55 34,0 53,18 53,60l0 9 37 0 0 -9c0,-59 -28,-90 -89,-90 -55,0 -96,27 -96,93 0,32 16,59 62,77l51 20z"/>
  <path class="fil0" d="M3283 4900l0 180 37 0c0,0 0,-180 2,-180l-39 0z"/>
  <path class="fil1" d="M3240 3322c-25,-163 -51,-322 -195,-478 -137,-148 -336,-224 -539,-224 -470,0 -800,344 -800,796 0,438 315,803 829,803 438,0 604,-300 687,-460l-90 -43c-90,145 -242,391 -550,391 -362,0 -373,-362 -376,-499 -4,-98 0,-192 0,-286l1035 0zm36 -1949c-25,-163 -51,-322 -195,-478 -137,-148 -336,-224 -539,-224 -470,0 -800,344 -800,796 0,438 315,803 829,803 438,0 604,-300 687,-459l-90 -43c-90,145 -242,391 -550,391 -362,0 -373,-362 -376,-499 -4,-98 0,-192 0,-286l1035 0zm-3275 -1376l4918 0 0 2666 -596 0 0 94 112 0c29,0 127,-4 127,62 0,33 -51,156 -65,192l-257 630 -376 -883 188 0 0 -94 -886 0 0 94 185 0 662 1444c0,0 -98,242 -149,381l-7 18c-25,58 -51,109 -87,109 -14,0 -33,-14 -43,-29 -14,-18 -22,-40 -33,-58 -29,-43 -83,-87 -166,-87 -138,0 -203,119 -203,213 0,67 30,126 78,167l-3400 0 0 -2158 170 0 684 1480 98 0 496 -1227c112,-239 116,-253 242,-253l98 0 0 -94 -648 0 0 94 174 0c29,0 94,-4 94,58 0,22 -14,51 -40,119l-304 760 -420 -937 239 0 0 -94 -883 0 0 -1855 164 0 684 1480 98 0 496 -1227c112,-239 116,-253 242,-253l98 0 0 -94 -648 0 0 94 174 0c29,0 94,-4 94,58 0,22 -14,51 -40,119l-304 760 -420 -937 239 0 0 -94 -877 0 0 -717zm2216 3024c14,-145 36,-318 289,-318 235,0 246,177 257,304l0 210 -550 0 4 -195zm36 -1949c14,-145 36,-318 289,-318 235,0 246,177 257,304l0 210 -550 0 4 -195zm2667 1685l0 2158 -1161 0c108,-81 176,-234 242,-398l645 -1589c51,-134 94,-166 228,-170l46 0z"/>
 </g>
</svg>
