<?xml version="1.0" standalone="no"?>
<!DOCTYPE svg PUBLIC "-//W3C//DTD SVG 20010904//EN"
 "http://www.w3.org/TR/2001/REC-SVG-20010904/DTD/svg10.dtd">
<svg version="1.0" xmlns="http://www.w3.org/2000/svg"
 width="1638.000000pt" height="1638.000000pt" viewBox="0 0 1638.000000 1638.000000"
 preserveAspectRatio="xMidYMid meet">
<metadata>
Created by potrace 1.11, written by Peter Selinger 2001-2013
</metadata>
<g transform="translate(0.000000,1638.000000) scale(0.100000,-0.100000)"
fill="#000000" stroke="none">
<path d="M0 15300 l0 -1080 1315 0 1315 0 0 -135 0 -135 -360 0 c-198 0 -360
-2 -360 -5 0 -9 1252 -2800 1260 -2808 7 -8 963 2369 1014 2525 45 134 29 210
-55 258 l-44 25 -337 3 -338 3 0 134 0 135 965 0 965 0 0 -135 0 -135 -218 0
c-125 0 -243 -5 -276 -11 -85 -18 -152 -63 -214 -144 -99 -129 -277 -514 -536
-1155 -130 -322 -467 -1156 -750 -1855 l-513 -1270 -143 0 -142 0 -899 1945
c-494 1070 -956 2068 -1025 2218 l-127 272 -248 0 -249 0 0 -2785 0 -2785
1320 0 1320 0 0 -135 0 -135 -356 0 c-334 0 -356 -1 -352 -17 10 -36 1253
-2803 1259 -2803 10 0 1004 2491 1025 2566 31 113 0 192 -88 230 -38 16 -81
19 -375 22 l-333 4 0 134 0 134 970 0 970 0 0 -134 0 -133 -237 -6 c-185 -4
-250 -9 -293 -22 -139 -44 -208 -135 -396 -532 -49 -103 -425 -1018 -835
-2033 l-746 -1845 -144 -3 -144 -2 -1025 2220 -1025 2220 -257 0 -258 0 0
-3245 0 -3245 3340 0 3340 0 0 -645 0 -645 60 0 60 0 0 645 0 645 180 0 180 0
0 -645 0 -645 60 0 60 0 0 645 0 645 1075 0 1075 0 0 -207 c0 -207 0 -208 -19
-178 -42 69 -99 95 -208 95 -157 -1 -235 -72 -285 -258 -16 -62 -20 -109 -21
-237 -1 -286 51 -433 176 -497 52 -26 152 -35 211 -18 54 15 119 68 146 119
l19 36 1 -72 0 -73 50 0 50 0 0 645 0 645 145 0 145 0 0 -245 0 -245 60 0 60
0 0 73 c0 39 3 150 7 245 l6 172 119 0 c67 0 118 4 118 9 0 6 -10 17 -22 25
-34 24 -105 115 -137 176 -87 166 -100 341 -37 522 54 155 165 286 296 350 95
46 163 61 270 61 230 0 415 -114 525 -323 140 -265 276 -258 413 22 28 57 94
218 148 358 53 140 159 412 235 603 l139 349 -994 2166 -994 2167 -276 3 -276
2 0 135 0 135 1325 0 1325 0 0 -135 0 -135 -286 0 c-225 0 -285 -3 -281 -12
18 -47 1112 -2608 1122 -2627 8 -15 15 -20 19 -13 13 21 816 1994 866 2127
129 343 128 412 -1 478 -71 36 -169 47 -421 47 l-198 0 0 135 0 135 895 0 895
0 0 4000 0 4000 -7380 0 -7380 0 0 -1080z m7917 -965 c419 -55 809 -217 1113
-462 96 -78 268 -256 343 -355 238 -318 340 -600 443 -1225 l5 -33 -1549 0
-1550 0 -7 -267 c-10 -341 7 -845 34 -1029 91 -607 360 -946 831 -1045 137
-29 385 -31 535 -4 528 92 921 404 1329 1053 32 50 60 92 61 92 10 0 255 -122
255 -127 0 -3 -28 -56 -62 -117 -283 -509 -579 -819 -978 -1019 -337 -170
-662 -236 -1100 -224 -349 10 -615 60 -908 173 -791 305 -1327 987 -1458 1859
-23 151 -26 550 -6 695 89 629 362 1137 817 1518 321 269 766 459 1200 511 50
6 101 13 115 15 75 10 430 5 537 -9z m-67 -5850 c500 -74 939 -294 1265 -636
250 -262 408 -556 506 -941 27 -110 89 -441 89 -480 0 -17 -80 -18 -1550 -18
l-1550 0 0 -472 c0 -260 5 -534 10 -608 34 -450 143 -763 339 -972 213 -227
474 -320 855 -305 169 7 298 30 438 78 407 139 744 446 1083 987 32 50 61 92
66 92 20 0 249 -114 249 -124 0 -6 -28 -60 -61 -121 -256 -460 -524 -754 -876
-962 -363 -213 -823 -309 -1307 -274 -670 49 -1208 287 -1627 717 -521 536
-753 1332 -619 2121 184 1080 1013 1833 2127 1933 139 12 428 4 563 -15z
m1460 -7270 c38 -20 73 -68 95 -130 26 -73 33 -371 11 -474 -31 -145 -99 -211
-208 -198 -133 16 -182 126 -183 407 0 170 10 240 45 310 19 37 64 84 90 93
31 11 122 6 150 -8z"/>
<path d="M7430 14104 c-101 -18 -178 -42 -260 -81 -163 -78 -270 -206 -336
-401 -64 -188 -92 -469 -94 -929 l0 -133 831 0 831 0 -5 388 c-5 416 -13 508
-63 680 -71 245 -216 393 -449 458 -44 12 -110 17 -245 20 -102 1 -196 0 -210
-2z"/>
<path d="M7336 8259 c-297 -41 -491 -183 -590 -432 -79 -197 -100 -364 -111
-874 l-5 -233 830 0 830 0 0 343 c0 376 -12 522 -54 691 -38 146 -86 236 -176
326 -129 130 -264 179 -510 185 -80 2 -176 0 -214 -6z"/>
<path d="M14493 8099 c-223 -21 -348 -92 -447 -253 -54 -87 87 256 -1120
-2719 -563 -1387 -1043 -2564 -1065 -2616 -158 -357 -308 -599 -478 -770 -62
-63 -113 -115 -113 -117 0 -2 785 -4 1745 -4 l1745 0 0 3245 0 3245 -92 -1
c-51 -1 -130 -5 -175 -10z"/>
<path d="M7795 1306 c-90 -42 -148 -127 -182 -262 -24 -97 -24 -351 0 -454 43
-187 146 -280 307 -280 172 0 285 110 316 308 l7 42 -60 0 -59 0 -17 -69 c-23
-87 -62 -143 -116 -165 -56 -22 -88 -20 -141 7 -79 39 -117 124 -127 285 l-6
92 267 0 266 0 0 78 c-1 147 -37 281 -95 358 -13 18 -48 44 -77 58 -44 22 -65
26 -142 26 -75 0 -100 -4 -141 -24z m212 -93 c19 -9 45 -32 58 -52 30 -44 55
-139 55 -203 l0 -48 -200 0 -200 0 0 38 c0 59 27 170 51 208 11 19 37 43 57
54 46 24 132 26 179 3z"/>
<path d="M11025 1311 c-22 -10 -59 -39 -82 -64 l-43 -47 0 55 0 55 -55 0 -55
0 0 -490 0 -490 60 0 60 0 0 348 c0 387 5 422 62 488 41 47 77 64 133 64 60 0
100 -24 125 -75 19 -39 20 -63 20 -433 l0 -392 60 0 60 0 0 348 c0 387 5 422
62 488 42 47 77 64 137 64 42 0 56 -5 85 -31 20 -17 40 -47 46 -67 6 -22 10
-191 10 -419 l0 -383 60 0 61 0 -3 423 c-3 421 -3 422 -27 470 -35 71 -85 101
-179 106 -122 6 -190 -24 -242 -106 l-28 -44 -11 34 c-13 39 -64 91 -104 106
-46 18 -167 13 -212 -8z"/>
<path d="M12366 1314 c-95 -35 -154 -121 -164 -239 l-5 -65 60 0 60 0 6 55
c11 108 61 158 165 163 126 6 175 -47 170 -181 -3 -66 -7 -82 -25 -96 -11 -10
-89 -37 -173 -61 -170 -49 -213 -73 -256 -146 -23 -38 -29 -63 -32 -130 -10
-192 61 -290 218 -302 123 -8 211 29 262 113 l18 30 0 -28 c0 -68 48 -107 131
-107 60 0 69 7 69 56 0 39 -2 44 -23 44 -13 0 -32 6 -43 14 -18 14 -19 33 -24
378 l-5 363 -25 45 c-28 49 -73 84 -129 100 -53 14 -209 11 -255 -6z m292
-624 c-3 -93 -8 -123 -25 -156 -57 -107 -183 -154 -268 -98 -61 40 -90 178
-53 249 33 63 67 83 198 120 52 15 105 32 119 40 25 13 26 12 29 -13 2 -15 2
-79 0 -142z"/>
<path d="M13340 1314 c-44 -19 -106 -78 -130 -124 -52 -100 -76 -297 -60 -473
22 -234 95 -348 241 -379 111 -23 219 22 267 112 l24 45 -6 -111 c-7 -124 -24
-186 -63 -228 -53 -57 -150 -73 -230 -36 -43 19 -83 69 -83 103 0 14 -10 17
-60 17 l-60 0 0 -30 c0 -69 51 -144 125 -183 57 -30 221 -36 296 -12 68 23
129 84 160 161 l24 59 3 538 3 537 -51 0 -50 0 0 -67 c0 -68 0 -68 -16 -38
-22 43 -63 84 -106 106 -47 24 -176 26 -228 3z m221 -107 c80 -54 110 -155
110 -372 0 -160 -11 -228 -47 -302 -32 -67 -79 -97 -149 -97 -129 1 -187 97
-201 333 -13 222 33 399 116 443 50 26 128 24 171 -5z"/>
<path d="M14312 1304 c-119 -59 -181 -187 -197 -409 -8 -99 7 -272 29 -346 31
-103 76 -165 148 -205 48 -26 62 -29 148 -29 87 0 100 3 150 30 89 49 150 148
167 273 l6 42 -60 0 -60 0 -12 -58 c-16 -81 -60 -148 -114 -172 -53 -25 -91
-25 -144 -1 -77 36 -119 129 -130 289 l-6 92 266 0 267 0 0 78 c0 215 -60 360
-171 416 -46 22 -66 26 -144 26 -78 0 -99 -4 -143 -26z m236 -103 c54 -38 92
-140 92 -246 l0 -45 -200 0 -200 0 0 28 c0 61 23 159 46 203 37 67 82 90 164
87 49 -3 74 -9 98 -27z"/>
<path d="M15266 1314 c-92 -34 -148 -111 -162 -224 -11 -97 25 -180 102 -232
23 -15 87 -45 144 -67 184 -72 222 -108 222 -211 0 -109 -92 -182 -211 -166
-94 13 -151 81 -151 183 l0 53 -61 0 -62 0 5 -83 c4 -70 9 -93 35 -138 25 -44
41 -59 88 -84 55 -28 66 -30 169 -30 126 0 176 16 233 75 51 53 67 95 71 193
4 94 -4 129 -44 184 -33 44 -75 67 -220 123 -76 29 -138 60 -155 76 -74 71
-54 206 36 248 28 13 54 17 101 14 54 -3 68 -9 94 -33 32 -30 50 -78 50 -132
l0 -33 61 0 62 0 -6 70 c-10 116 -66 194 -158 220 -50 15 -198 11 -243 -6z"/>
<path d="M5344 1228 c13 -46 74 -266 137 -490 l113 -408 68 0 c37 0 68 2 68 4
0 3 56 218 125 478 69 261 125 480 125 487 0 8 -18 11 -62 9 l-63 -3 -95 -408
c-61 -266 -97 -402 -102 -390 -4 10 -46 171 -94 358 -47 187 -92 364 -100 393
l-15 52 -64 0 -64 0 23 -82z"/>
<path d="M6200 820 l0 -490 60 0 60 0 0 490 0 490 -60 0 -60 0 0 -490z"/>
<path d="M10270 820 l0 -490 60 0 60 0 0 490 0 490 -60 0 -60 0 0 -490z"/>
</g>
</svg>
